<svg width="24" height="24" viewBox="0 0 24 24" fill="none" xmlns="http://www.w3.org/2000/svg">
<g id="Pets &#38; Clients">
<path id="Vector" d="M20.625 7.07059C20.0564 7.07059 19.5005 7.2392 19.0277 7.55511C18.5549 7.87102 18.1864 8.32003 17.9688 8.84537C17.7512 9.37071 17.6943 9.94877 17.8052 10.5065C17.9162 11.0642 18.19 11.5764 18.5921 11.9785C18.9941 12.3806 19.5064 12.6544 20.0641 12.7653C20.6218 12.8763 21.1999 12.8193 21.7252 12.6017C22.2506 12.3841 22.6996 12.0156 23.0155 11.5428C23.3314 11.0701 23.5 10.5142 23.5 9.94558C23.5 9.18309 23.1971 8.45182 22.6579 7.91265C22.1188 7.37349 21.3875 7.07059 20.625 7.07059ZM20.625 11.1777C20.3813 11.1777 20.1431 11.1055 19.9405 10.9701C19.7378 10.8347 19.5799 10.6423 19.4867 10.4171C19.3934 10.192 19.369 9.94422 19.4165 9.70521C19.4641 9.46619 19.5814 9.24665 19.7537 9.07433C19.9261 8.90201 20.1456 8.78466 20.3846 8.73712C20.6236 8.68957 20.8714 8.71398 21.0965 8.80723C21.3217 8.90049 21.5141 9.05842 21.6495 9.26104C21.7849 9.46367 21.8571 9.70189 21.8571 9.94558C21.8571 10.2724 21.7273 10.5858 21.4963 10.8168C21.2652 11.0479 20.9518 11.1777 20.625 11.1777ZM6.25 9.94558C6.25 9.37696 6.08139 8.82111 5.76548 8.34832C5.44957 7.87553 5.00055 7.50703 4.47522 7.28943C3.94988 7.07183 3.37181 7.0149 2.81412 7.12583C2.25642 7.23676 1.74415 7.51058 1.34207 7.91265C0.939993 8.31473 0.666176 8.827 0.555244 9.3847C0.444311 9.9424 0.501246 10.5205 0.718848 11.0458C0.93645 11.5711 1.30495 12.0202 1.77774 12.3361C2.25053 12.652 2.80638 12.8206 3.375 12.8206C4.1375 12.8206 4.86877 12.5177 5.40793 11.9785C5.9471 11.4393 6.25 10.7081 6.25 9.94558ZM3.375 11.1777C3.13131 11.1777 2.89308 11.1055 2.69046 10.9701C2.48783 10.8347 2.32991 10.6423 2.23665 10.4171C2.14339 10.192 2.11899 9.94422 2.16653 9.70521C2.21408 9.46619 2.33143 9.24665 2.50374 9.07433C2.67606 8.90201 2.89561 8.78466 3.13462 8.73712C3.37363 8.68957 3.62138 8.71398 3.84652 8.80723C4.07167 8.90049 4.2641 9.05842 4.39949 9.26104C4.53488 9.46367 4.60714 9.70189 4.60714 9.94558C4.60714 10.2724 4.47733 10.5858 4.24626 10.8168C4.01519 11.0479 3.70179 11.1777 3.375 11.1777ZM8.30357 7.89201C8.87219 7.89201 9.42805 7.7234 9.90084 7.40749C10.3736 7.09158 10.7421 6.64257 10.9597 6.11723C11.1773 5.59189 11.2343 5.01383 11.1233 4.45613C11.0124 3.89843 10.7386 3.38616 10.3365 2.98408C9.93443 2.58201 9.42215 2.30819 8.86446 2.19726C8.30676 2.08632 7.7287 2.14326 7.20336 2.36086C6.67802 2.57846 6.22901 2.94696 5.9131 3.41975C5.59719 3.89254 5.42857 4.44839 5.42857 5.01701C5.42857 5.77951 5.73147 6.51078 6.27064 7.04995C6.80981 7.58911 7.54108 7.89201 8.30357 7.89201ZM8.30357 3.78487C8.54727 3.78487 8.78549 3.85714 8.98811 3.99253C9.19074 4.12791 9.34867 4.32035 9.44192 4.54549C9.53518 4.77064 9.55958 5.01838 9.51204 5.25739C9.4645 5.49641 9.34715 5.71595 9.17483 5.88827C9.00251 6.06059 8.78296 6.17794 8.54395 6.22548C8.30494 6.27302 8.0572 6.24862 7.83205 6.15537C7.60691 6.06211 7.41447 5.90418 7.27908 5.70156C7.14369 5.49893 7.07143 5.26071 7.07143 5.01701C7.07143 4.69023 7.20124 4.37683 7.43232 4.14576C7.66339 3.91469 7.97679 3.78487 8.30357 3.78487ZM15.6964 7.89201C16.2651 7.89201 16.8209 7.7234 17.2937 7.40749C17.7665 7.09158 18.135 6.64257 18.3526 6.11723C18.5702 5.59189 18.6271 5.01383 18.5162 4.45613C18.4053 3.89843 18.1314 3.38616 17.7294 2.98408C17.3273 2.58201 16.815 2.30819 16.2573 2.19726C15.6996 2.08632 15.1216 2.14326 14.5962 2.36086C14.0709 2.57846 13.6219 2.94696 13.306 3.41975C12.99 3.89254 12.8214 4.44839 12.8214 5.01701C12.8214 5.77951 13.1243 6.51078 13.6635 7.04995C14.2027 7.58911 14.9339 7.89201 15.6964 7.89201ZM15.6964 3.78487C15.9401 3.78487 16.1783 3.85714 16.381 3.99253C16.5836 4.12791 16.7415 4.32035 16.8348 4.54549C16.928 4.77064 16.9524 5.01838 16.9049 5.25739C16.8574 5.49641 16.74 5.71595 16.5677 5.88827C16.3954 6.06059 16.1758 6.17794 15.9368 6.22548C15.6978 6.27302 15.4501 6.24862 15.2249 6.15537C14.9998 6.06211 14.8073 5.90418 14.6719 5.70156C14.5366 5.49893 14.4643 5.26071 14.4643 5.01701C14.4643 4.69023 14.5941 4.37683 14.8252 4.14576C15.0562 3.91469 15.3696 3.78487 15.6964 3.78487ZM18.0704 14.141C17.6531 13.9109 17.2854 13.6007 16.9881 13.2282C16.6909 12.8557 16.47 12.4283 16.3382 11.9704C16.0651 11.0312 15.4945 10.2059 14.7122 9.6187C13.9299 9.03148 12.9782 8.71402 12 8.71402C11.0218 8.71402 10.0701 9.03148 9.28782 9.6187C8.50553 10.2059 7.93495 11.0312 7.66183 11.9704C7.398 12.8918 6.77949 13.6709 5.94197 14.1369C5.13853 14.5717 4.50295 15.2619 4.13577 16.0983C3.7686 16.9348 3.69077 17.8698 3.9146 18.7555C4.13843 19.6412 4.65115 20.4269 5.37166 20.9885C6.09217 21.5501 6.97934 21.8555 7.89286 21.8563C8.44029 21.8578 8.98237 21.7485 9.48643 21.5349C11.0934 20.8723 12.8973 20.8723 14.5043 21.5349C15.4777 21.9582 16.5771 21.9883 17.5721 21.6188C18.5672 21.2493 19.3805 20.509 19.8417 19.5529C20.3028 18.5969 20.3759 17.4995 20.0457 16.4908C19.7155 15.482 19.0076 14.6403 18.0704 14.1421V14.141ZM16.1071 20.2134C15.7736 20.2137 15.4435 20.1463 15.1368 20.0153C13.125 19.1843 10.8658 19.1843 8.85393 20.0153C8.26928 20.267 7.60989 20.2827 7.0139 20.0592C6.4179 19.8356 5.93154 19.3901 5.65667 18.816C5.38181 18.2418 5.33978 17.5836 5.53938 16.9791C5.73899 16.3747 6.16474 15.8709 6.72746 15.5734C7.33248 15.2393 7.86571 14.7892 8.29665 14.2488C8.7276 13.7084 9.04781 13.0884 9.23897 12.4242C9.41256 11.8262 9.77562 11.3008 10.2735 10.9268C10.7714 10.5529 11.3773 10.3507 12 10.3507C12.6227 10.3507 13.2286 10.5529 13.7265 10.9268C14.2244 11.3008 14.5874 11.8262 14.761 12.4242C14.9528 13.0897 15.274 13.7107 15.7062 14.2518C16.1384 14.7929 16.6731 15.2434 17.2797 15.5775C17.7642 15.8373 18.1479 16.2517 18.3697 16.7547C18.5916 17.2577 18.6389 17.8205 18.5041 18.3534C18.3693 18.8864 18.0601 19.359 17.6258 19.696C17.1914 20.0331 16.6569 20.2152 16.1071 20.2134Z" fill="white" stroke="white" stroke-width="0.2"/>
</g>
</svg>
