<svg width="20" height="20" viewBox="0 0 20 20" fill="none" xmlns="http://www.w3.org/2000/svg">
<path d="M9.95299 0.341553C4.62726 0.341553 0.294434 4.67438 0.294434 10.0001C0.294434 15.3258 4.62726 19.6587 9.95299 19.6587C15.2787 19.6587 19.6115 15.3258 19.6115 10.0001C19.6115 8.91255 19.4222 7.86963 19.089 6.89315L17.5251 8.457C17.6266 8.95538 17.6798 9.47178 17.6798 10.0001C17.6798 14.2605 14.2134 17.727 9.95299 17.727C5.6926 17.727 2.22614 14.2605 2.22614 10.0001C2.22614 5.73972 5.6926 2.27326 9.95299 2.27326C11.5302 2.27326 12.9973 2.75029 14.222 3.56547L15.6048 2.18271C14.013 1.02948 12.0634 0.341553 9.95299 0.341553ZM18.9287 1.59037L8.98713 11.5319L5.8066 8.35136L4.44082 9.71714L8.98713 14.2635L20.2944 2.95615L18.9287 1.59037Z" fill="#7F7F7F"/>
</svg>
