<svg width="23" height="22" viewBox="0 0 23 22" fill="none" xmlns="http://www.w3.org/2000/svg">
<path d="M11.5 5.72244V11.0002L14.6667 14.1669M2 11.0002C2 12.2478 2.24572 13.4831 2.72314 14.6357C3.20056 15.7883 3.90033 16.8356 4.78249 17.7178C5.66464 18.5999 6.71191 19.2997 7.86451 19.7771C9.0171 20.2545 10.2524 20.5002 11.5 20.5002C12.7476 20.5002 13.9829 20.2545 15.1355 19.7771C16.2881 19.2997 17.3354 18.5999 18.2175 17.7178C19.0997 16.8356 19.7994 15.7883 20.2769 14.6357C20.7543 13.4831 21 12.2478 21 11.0002C21 8.48069 19.9991 6.06433 18.2175 4.28273C16.4359 2.50113 14.0196 1.50024 11.5 1.50024C8.98044 1.50024 6.56408 2.50113 4.78249 4.28273C3.00089 6.06433 2 8.48069 2 11.0002Z" stroke="#7F7F7F" stroke-width="2.11111" stroke-linecap="round" stroke-linejoin="round"/>
</svg>
