<svg width="18" height="20" viewBox="0 0 18 20" fill="none" xmlns="http://www.w3.org/2000/svg">
<path d="M8.33375 0.166185C8.76711 0.0276128 9.23289 0.0276128 9.66625 0.166185L16.2288 2.26619C16.6704 2.40742 17.0558 2.68538 17.3293 3.05992C17.6027 3.43446 17.75 3.8862 17.75 4.34994V8.74994C17.75 10.7074 17.35 12.7274 16.1212 14.6024C14.8925 16.4749 12.89 18.1187 9.83125 19.4212C9.56836 19.5329 9.28565 19.5905 9 19.5905C8.71435 19.5905 8.43164 19.5329 8.16875 19.4212C5.11 18.1187 3.1075 16.4749 1.87875 14.6024C0.65 12.7274 0.25 10.7074 0.25 8.74994V4.34994C0.249962 3.8862 0.397296 3.43446 0.67073 3.05992C0.944164 2.68538 1.32955 2.40742 1.77125 2.26619L8.33375 0.166185ZM9.09625 1.95244C9.03407 1.93245 8.96718 1.93245 8.905 1.95244L2.3425 4.05244C2.2794 4.07257 2.22432 4.11224 2.18523 4.16571C2.14614 4.21918 2.12504 4.2837 2.125 4.34994V8.74994C2.125 10.4474 2.46875 12.0824 3.44625 13.5749C4.42625 15.0674 6.0975 16.4999 8.90375 17.6962C8.93424 17.7089 8.96696 17.7155 9 17.7155C9.03304 17.7155 9.06575 17.7089 9.09625 17.6962C11.9025 16.5012 13.5737 15.0662 14.5538 13.5737C15.5312 12.0824 15.875 10.4499 15.875 8.74994V4.34994C15.8747 4.28391 15.8535 4.21968 15.8144 4.16646C15.7753 4.11323 15.7204 4.07376 15.6575 4.05369L9.09625 1.95244ZM9.9375 5.93744V9.68744C9.9375 9.93608 9.83873 10.1745 9.66291 10.3503C9.4871 10.5262 9.24864 10.6249 9 10.6249C8.75136 10.6249 8.5129 10.5262 8.33709 10.3503C8.16127 10.1745 8.0625 9.93608 8.0625 9.68744V5.93744C8.0625 5.68879 8.16127 5.45034 8.33709 5.27452C8.5129 5.09871 8.75136 4.99994 9 4.99994C9.24864 4.99994 9.4871 5.09871 9.66291 5.27452C9.83873 5.45034 9.9375 5.68879 9.9375 5.93744ZM10.25 13.1249C10.25 13.4565 10.1183 13.7744 9.88388 14.0088C9.64946 14.2432 9.33152 14.3749 9 14.3749C8.66848 14.3749 8.35054 14.2432 8.11612 14.0088C7.8817 13.7744 7.75 13.4565 7.75 13.1249C7.75 12.7934 7.8817 12.4755 8.11612 12.2411C8.35054 12.0066 8.66848 11.8749 9 11.8749C9.33152 11.8749 9.64946 12.0066 9.88388 12.2411C10.1183 12.4755 10.25 12.7934 10.25 13.1249Z" fill="#7F7F7F"/>
</svg>
