<svg width="20" height="19" viewBox="0 0 20 19" fill="none" xmlns="http://www.w3.org/2000/svg">
<path fill-rule="evenodd" clip-rule="evenodd" d="M9.99996 12.2048C9.74809 12.2048 9.50654 12.1047 9.32844 11.9266C9.15035 11.7486 9.05029 11.507 9.05029 11.2551V6.5068C9.05029 6.25493 9.15035 6.01338 9.32844 5.83528C9.50654 5.65718 9.74809 5.55713 9.99996 5.55713C10.2518 5.55713 10.4934 5.65718 10.6715 5.83528C10.8496 6.01338 10.9496 6.25493 10.9496 6.5068V11.2551C10.9496 11.507 10.8496 11.7486 10.6715 11.9266C10.4934 12.1047 10.2518 12.2048 9.99996 12.2048Z" fill="#7F7F7F"/>
<path d="M9 14.2542C9 13.9889 9.10536 13.7346 9.29289 13.547C9.48043 13.3595 9.73478 13.2542 10 13.2542C10.2652 13.2542 10.5196 13.3595 10.7071 13.547C10.8946 13.7346 11 13.9889 11 14.2542C11 14.5194 10.8946 14.7737 10.7071 14.9613C10.5196 15.1488 10.2652 15.2541 10 15.2541C9.73478 15.2541 9.48043 15.1488 9.29289 14.9613C9.10536 14.7737 9 14.5194 9 14.2542Z" fill="#7F7F7F"/>
<path fill-rule="evenodd" clip-rule="evenodd" d="M13.6071 2.14219L19.4829 12.8619C20.9949 15.6208 19.01 18.9997 15.876 18.9997H4.12437C0.990453 18.9997 -0.995493 15.6198 0.517466 12.8609L6.3933 2.14119C7.95926 -0.71373 12.0412 -0.71373 13.6071 2.14119V2.14219ZM11.8032 3.14216C11.0212 1.7132 8.97923 1.7132 8.19726 3.14216L2.32042 13.8599C1.56344 15.2398 2.55641 16.9288 4.12337 16.9288H15.875C17.442 16.9288 18.435 15.2388 17.678 13.8589L11.8032 3.14216Z" fill="#7F7F7F"/>
</svg>
