<svg width="20" height="20" viewBox="0 0 20 20" fill="none" xmlns="http://www.w3.org/2000/svg">
<path d="M4.16634 18.3334V10.3334L3.93717 10.1042C3.7844 9.93758 3.66634 9.75008 3.58301 9.54175C3.49967 9.33341 3.45801 9.12508 3.45801 8.91675C3.45801 8.69453 3.49967 8.48286 3.58301 8.28175C3.66634 8.08008 3.7844 7.90286 3.93717 7.75008L6.66634 5.00008H9.99967L13.333 1.66675L15.0413 3.37508C15.6247 3.94453 16.0552 4.58675 16.333 5.30175C16.6108 6.0173 16.7497 6.75008 16.7497 7.50008C16.7497 8.25008 16.6108 8.97925 16.333 9.68758C16.0552 10.3959 15.6247 11.0417 15.0413 11.6251L13.333 13.3334V18.3334H4.16634ZM5.83301 16.6667H11.6663V12.6459L13.8538 10.4584C14.2566 10.0556 14.5622 9.59369 14.7705 9.07258C14.9788 8.55203 15.083 8.02786 15.083 7.50008C15.083 6.9723 14.9788 6.45147 14.7705 5.93758C14.5622 5.42369 14.2566 4.96536 13.8538 4.56258L13.333 4.02091L10.6872 6.66675H7.35384L6.87467 7.14591L8.27051 8.54175C8.67329 8.94453 8.97884 9.40286 9.18717 9.91675C9.39551 10.4306 9.49967 10.9515 9.49967 11.4792C9.49967 12.007 9.39551 12.5315 9.18717 13.0526C8.97884 13.5731 8.67329 14.0348 8.27051 14.4376L5.83301 12.0001V16.6667Z" fill="#3B82F6"/>
</svg>
