<svg width="16" height="20" viewBox="0 0 16 20" fill="none" xmlns="http://www.w3.org/2000/svg">
<path fill-rule="evenodd" clip-rule="evenodd" d="M5.28571 11.1429H3.85714C3.62143 11.1429 3.42857 10.95 3.42857 10.7143V9.28574C3.42857 9.05003 3.62143 8.85717 3.85714 8.85717H5.28571C5.52143 8.85717 5.71429 9.05003 5.71429 9.28574V10.7143C5.71429 10.95 5.52143 11.1429 5.28571 11.1429ZM9.14286 10.7143V9.28574C9.14286 9.05003 8.95 8.85717 8.71429 8.85717H7.28571C7.05 8.85717 6.85714 9.05003 6.85714 9.28574V10.7143C6.85714 10.95 7.05 11.1429 7.28571 11.1429H8.71429C8.95 11.1429 9.14286 10.95 9.14286 10.7143ZM12.5714 10.7143V9.28574C12.5714 9.05003 12.3786 8.85717 12.1429 8.85717H10.7143C10.4786 8.85717 10.2857 9.05003 10.2857 9.28574V10.7143C10.2857 10.95 10.4786 11.1429 10.7143 11.1429H12.1429C12.3786 11.1429 12.5714 10.95 12.5714 10.7143ZM9.14286 14.1429V12.7143C9.14286 12.4786 8.95 12.2857 8.71429 12.2857H7.28571C7.05 12.2857 6.85714 12.4786 6.85714 12.7143V14.1429C6.85714 14.3786 7.05 14.5715 7.28571 14.5715H8.71429C8.95 14.5715 9.14286 14.3786 9.14286 14.1429ZM5.71429 14.1429V12.7143C5.71429 12.4786 5.52143 12.2857 5.28571 12.2857H3.85714C3.62143 12.2857 3.42857 12.4786 3.42857 12.7143V14.1429C3.42857 14.3786 3.62143 14.5715 3.85714 14.5715H5.28571C5.52143 14.5715 5.71429 14.3786 5.71429 14.1429ZM12.5714 14.1429V12.7143C12.5714 12.4786 12.3786 12.2857 12.1429 12.2857H10.7143C10.4786 12.2857 10.2857 12.4786 10.2857 12.7143V14.1429C10.2857 14.3786 10.4786 14.5715 10.7143 14.5715H12.1429C12.3786 14.5715 12.5714 14.3786 12.5714 14.1429ZM16 4.85718V17.4286C16 18.375 15.2321 19.1429 14.2857 19.1429H1.71429C0.767857 19.1429 0 18.375 0 17.4286V4.85718C0 3.91075 0.767857 3.14289 1.71429 3.14289H3.42857V1.28575C3.42857 1.05003 3.62143 0.857178 3.85714 0.857178H5.28571C5.52143 0.857178 5.71429 1.05003 5.71429 1.28575V3.14289H10.2857V1.28575C10.2857 1.05003 10.4786 0.857178 10.7143 0.857178H12.1429C12.3786 0.857178 12.5714 1.05003 12.5714 1.28575V3.14289H14.2857C15.2321 3.14289 16 3.91075 16 4.85718ZM14.2857 17.2143V6.57146H1.71429V17.2143C1.71429 17.3322 1.81071 17.4286 1.92857 17.4286H14.0714C14.1893 17.4286 14.2857 17.3322 14.2857 17.2143Z" fill="#22C55E"/>
</svg>
