<svg width="18" height="18" viewBox="0 0 18 18" fill="none" xmlns="http://www.w3.org/2000/svg">
<path d="M5.66844 14.7413C4.96622 15.9013 4.65067 17 3.4 17C2.07467 17 1 15.8951 1 14.5315C1 13.168 2.07467 12.0622 3.4 12.0622C4.64444 12.0622 5.66667 13.0355 5.78756 14.2826C5.79787 14.444 5.75612 14.6054 5.66844 14.7413ZM5.66844 14.7413L7.4 11.6506M12.3316 14.7404C13.0338 15.9013 13.3493 17 14.6 17C15.9253 17 17 15.8951 17 14.5315C17 13.168 15.9253 12.0622 14.6 12.0622C13.3556 12.0622 12.3333 13.0355 12.2116 14.2826C12.1964 14.4444 12.2471 14.6026 12.3316 14.7404ZM12.3316 14.7404L4.63822 1.30752C4.59092 1.22259 4.52326 1.15074 4.44131 1.09843C4.35937 1.04612 4.2657 1.015 4.16875 1.00786C4.07179 1.00072 3.97458 1.01779 3.88586 1.05753C3.79713 1.09727 3.71967 1.15843 3.66044 1.23552C2.14578 3.18219 2.29689 5.99108 4.01156 7.75375L12.3316 14.7404ZM8.95644 8.84708L13.3591 1.29686C13.4069 1.21256 13.4748 1.14142 13.5568 1.08978C13.6388 1.03813 13.7323 1.0076 13.829 1.00091C13.9256 0.994221 14.0224 1.01158 14.1108 1.05143C14.1991 1.09129 14.2762 1.1524 14.3351 1.2293C15.8524 3.17952 15.7013 5.99197 13.984 7.75819L13 8.77064" stroke="#EB25BD" stroke-width="1.77778" stroke-linecap="round" stroke-linejoin="round"/>
</svg>
