<svg width="16" height="16" viewBox="0 0 16 16" fill="none" xmlns="http://www.w3.org/2000/svg">
<path d="M8.00049 11.75C8.21299 11.75 8.39124 11.678 8.53524 11.534C8.67924 11.39 8.75099 11.212 8.75049 11C8.74999 10.788 8.67799 10.61 8.53449 10.466C8.39099 10.322 8.21299 10.25 8.00049 10.25C7.78799 10.25 7.60999 10.322 7.46649 10.466C7.32299 10.61 7.25099 10.788 7.25049 11C7.24999 11.212 7.32199 11.3902 7.46649 11.5347C7.61099 11.6792 7.78899 11.751 8.00049 11.75ZM8.00049 8.75C8.21299 8.75 8.39124 8.678 8.53524 8.534C8.67924 8.39 8.75099 8.212 8.75049 8V5C8.75049 4.7875 8.67849 4.6095 8.53449 4.466C8.39049 4.3225 8.21249 4.2505 8.00049 4.25C7.78849 4.2495 7.61049 4.3215 7.46649 4.466C7.32249 4.6105 7.25049 4.7885 7.25049 5V8C7.25049 8.2125 7.32249 8.39075 7.46649 8.53475C7.61049 8.67875 7.78849 8.7505 8.00049 8.75ZM8.00049 15.5C6.96299 15.5 5.98799 15.303 5.07549 14.909C4.16299 14.515 3.36924 13.9808 2.69424 13.3063C2.01924 12.6318 1.48499 11.838 1.09149 10.925C0.697989 10.012 0.500989 9.037 0.500489 8C0.499989 6.963 0.696989 5.988 1.09149 5.075C1.48599 4.162 2.02024 3.36825 2.69424 2.69375C3.36824 2.01925 4.16199 1.485 5.07549 1.091C5.98899 0.697 6.96399 0.5 8.00049 0.5C9.03699 0.5 10.012 0.697 10.9255 1.091C11.839 1.485 12.6327 2.01925 13.3067 2.69375C13.9807 3.36825 14.5152 4.162 14.9102 5.075C15.3052 5.988 15.502 6.963 15.5005 8C15.499 9.037 15.302 10.012 14.9095 10.925C14.517 11.838 13.9827 12.6318 13.3067 13.3063C12.6307 13.9808 11.837 14.5152 10.9255 14.9097C10.014 15.3042 9.03899 15.501 8.00049 15.5Z" fill="white"/>
</svg>
