<svg width="12" height="8" viewBox="0 0 12 8" fill="none" xmlns="http://www.w3.org/2000/svg">
<path fill-rule="evenodd" clip-rule="evenodd" d="M11.5505 0.989204C11.7191 1.15795 11.8137 1.3867 11.8137 1.6252C11.8137 1.8637 11.7191 2.09245 11.5505 2.2612L6.11454 7.6972L0.678539 2.2612C0.590115 2.17881 0.519193 2.07945 0.470002 1.96905C0.420812 1.85865 0.394362 1.73947 0.39223 1.61863C0.390098 1.49779 0.412327 1.37775 0.457592 1.26569C0.502857 1.15362 0.570231 1.05182 0.655693 0.966358C0.741156 0.880896 0.842957 0.813522 0.955022 0.768257C1.06709 0.722991 1.18712 0.700761 1.30797 0.702894C1.42881 0.705026 1.54799 0.731476 1.65839 0.780666C1.76878 0.829857 1.86814 0.90078 1.95054 0.989204L6.11454 5.1532L10.2785 0.989204C10.4473 0.820663 10.676 0.725996 10.9145 0.725996C11.153 0.725996 11.3818 0.820663 11.5505 0.989204Z" fill="#6B7280"/>
</svg>
