<svg width="28" height="26" viewBox="0 0 28 26" fill="none" xmlns="http://www.w3.org/2000/svg">
<path fill-rule="evenodd" clip-rule="evenodd" d="M14 11.2502C9.65727 11.2502 3.5 17.9637 3.5 22.2014C3.5 24.11 4.96617 25.2502 7.42328 25.2502C10.0942 25.2502 11.8579 23.8787 14 23.8787C16.1607 23.8787 17.9293 25.2502 20.5767 25.2502C23.0338 25.2502 24.5 24.11 24.5 22.2014C24.5 17.9637 18.3427 11.2502 14 11.2502Z" fill="#3B82F6"/>
<path fill-rule="evenodd" clip-rule="evenodd" d="M5.94604 10.5607C5.37729 8.66579 3.62511 7.4386 2.03261 7.81923C0.440107 8.19985 -0.389502 10.0445 0.179248 11.9394C0.747998 13.8343 2.50019 15.0615 4.09269 14.6809C5.68519 14.3002 6.51479 12.4556 5.94604 10.5607Z" fill="#FFC100"/>
<path fill-rule="evenodd" clip-rule="evenodd" d="M10.5798 9.42444C12.2719 8.97929 13.1184 6.69335 12.4709 4.31882C11.8234 1.94429 9.92688 0.380771 8.23484 0.825928C6.54281 1.27108 5.69625 3.55702 6.34375 5.93155C6.99125 8.30608 8.88836 9.87015 10.5798 9.42444Z" fill="#22C55E"/>
<path fill-rule="evenodd" clip-rule="evenodd" d="M25.9681 7.82007C24.3756 7.43944 22.624 8.66663 22.0547 10.5616C21.4859 12.4565 22.3155 14.3011 23.908 14.6817C25.5005 15.0623 27.2522 13.8351 27.8215 11.9402C28.3902 10.0453 27.5606 8.20069 25.9681 7.82007Z" fill="#EA580C"/>
<path fill-rule="evenodd" clip-rule="evenodd" d="M17.4223 9.42444C19.1144 9.8696 21.0109 8.30608 21.6584 5.93155C22.3059 3.55702 21.4594 1.27163 19.7673 0.825928C18.0753 0.380224 16.1787 1.94429 15.5312 4.31882C14.8838 6.69335 15.7303 8.97929 17.4223 9.42444Z" fill="#9333EA"/>
</svg>
