<svg width="22" height="24" viewBox="0 0 22 24" fill="none" xmlns="http://www.w3.org/2000/svg">
<path fill-rule="evenodd" clip-rule="evenodd" d="M7.4375 13.5H5.5625C5.25313 13.5 5 13.2469 5 12.9375V11.0625C5 10.7531 5.25313 10.5 5.5625 10.5H7.4375C7.74688 10.5 8 10.7531 8 11.0625V12.9375C8 13.2469 7.74688 13.5 7.4375 13.5ZM12.5 12.9375V11.0625C12.5 10.7531 12.2469 10.5 11.9375 10.5H10.0625C9.75312 10.5 9.5 10.7531 9.5 11.0625V12.9375C9.5 13.2469 9.75312 13.5 10.0625 13.5H11.9375C12.2469 13.5 12.5 13.2469 12.5 12.9375ZM17 12.9375V11.0625C17 10.7531 16.7469 10.5 16.4375 10.5H14.5625C14.2531 10.5 14 10.7531 14 11.0625V12.9375C14 13.2469 14.2531 13.5 14.5625 13.5H16.4375C16.7469 13.5 17 13.2469 17 12.9375ZM12.5 17.4375V15.5625C12.5 15.2531 12.2469 15 11.9375 15H10.0625C9.75312 15 9.5 15.2531 9.5 15.5625V17.4375C9.5 17.7469 9.75312 18 10.0625 18H11.9375C12.2469 18 12.5 17.7469 12.5 17.4375ZM8 17.4375V15.5625C8 15.2531 7.74688 15 7.4375 15H5.5625C5.25313 15 5 15.2531 5 15.5625V17.4375C5 17.7469 5.25313 18 5.5625 18H7.4375C7.74688 18 8 17.7469 8 17.4375ZM17 17.4375V15.5625C17 15.2531 16.7469 15 16.4375 15H14.5625C14.2531 15 14 15.2531 14 15.5625V17.4375C14 17.7469 14.2531 18 14.5625 18H16.4375C16.7469 18 17 17.7469 17 17.4375ZM21.5 5.25V21.75C21.5 22.9922 20.4922 24 19.25 24H2.75C1.50781 24 0.5 22.9922 0.5 21.75V5.25C0.5 4.00781 1.50781 3 2.75 3H5V0.5625C5 0.253125 5.25313 0 5.5625 0H7.4375C7.74688 0 8 0.253125 8 0.5625V3H14V0.5625C14 0.253125 14.2531 0 14.5625 0H16.4375C16.7469 0 17 0.253125 17 0.5625V3H19.25C20.4922 3 21.5 4.00781 21.5 5.25ZM19.25 21.4688V7.5H2.75V21.4688C2.75 21.6234 2.87656 21.75 3.03125 21.75H18.9688C19.1234 21.75 19.25 21.6234 19.25 21.4688Z" fill="white"/>
</svg>
