<svg width="16" height="16" viewBox="0 0 16 16" fill="none" xmlns="http://www.w3.org/2000/svg">
<path d="M11.5556 0C11.7913 0 12.0174 0.0936505 12.1841 0.260349C12.3508 0.427048 12.4444 0.653141 12.4444 0.888889V1.77778H14.2222C14.6707 1.77764 15.1027 1.94703 15.4316 2.252C15.7605 2.55697 15.9619 2.97497 15.9956 3.42222L16 3.55556V14.2222C16.0001 14.6707 15.8308 15.1027 15.5258 15.4316C15.2208 15.7605 14.8028 15.9619 14.3556 15.9956L14.2222 16H1.77778C1.32927 16.0001 0.897274 15.8308 0.568402 15.5258C0.23953 15.2208 0.038083 14.8028 0.00444464 14.3556L8.91271e-08 14.2222V3.55556C-0.000141848 3.10704 0.16925 2.67505 0.47422 2.34618C0.779189 2.01731 1.1972 1.81586 1.64444 1.78222L1.77778 1.77778H3.55556V0.888889C3.55556 0.653141 3.64921 0.427048 3.81591 0.260349C3.9826 0.0936505 4.2087 0 4.44444 0C4.68019 0 4.90628 0.0936505 5.07298 0.260349C5.23968 0.427048 5.33333 0.653141 5.33333 0.888889V1.77778H10.6667V0.888889C10.6667 0.653141 10.7603 0.427048 10.927 0.260349C11.0937 0.0936505 11.3198 0 11.5556 0ZM10.5102 5.67022L6.73956 9.44089L5.48178 8.184C5.31413 8.02208 5.0896 7.93249 4.85653 7.93451C4.62347 7.93654 4.40052 8.03002 4.23572 8.19483C4.07091 8.35964 3.97743 8.58258 3.9754 8.81564C3.97338 9.04871 4.06297 9.27324 4.22489 9.44089L6.104 11.3209C6.18738 11.4043 6.28638 11.4705 6.39536 11.5157C6.50434 11.5609 6.62115 11.5841 6.73911 11.5841C6.85708 11.5841 6.97389 11.5609 7.08286 11.5157C7.19184 11.4705 7.29084 11.4043 7.37422 11.3209L11.7671 6.92711C11.852 6.84511 11.9197 6.74703 11.9663 6.63858C12.0129 6.53013 12.0374 6.41349 12.0384 6.29547C12.0395 6.17744 12.017 6.06039 11.9723 5.95115C11.9276 5.84191 11.8616 5.74266 11.7781 5.6592C11.6947 5.57574 11.5954 5.50974 11.4862 5.46505C11.3769 5.42035 11.2599 5.39786 11.1419 5.39889C11.0238 5.39991 10.9072 5.42444 10.7988 5.47102C10.6903 5.51761 10.5922 5.58532 10.5102 5.67022Z" fill="white"/>
</svg>
