<svg width="24" height="23" viewBox="0 0 24 23" fill="none" xmlns="http://www.w3.org/2000/svg">
<path d="M12 0C5.3832 0 0 5.1589 0 11.5C0 17.8411 5.3832 23 12 23C18.6168 23 24 17.8411 24 11.5C24 5.1589 18.6168 0 12 0ZM13.2 17.1523V18.4H10.8V17.158C7.9932 16.736 7.2 14.8557 7.2 13.8H9.6C9.6132 13.9644 9.7908 14.95 12 14.95C13.656 14.95 14.4 14.2772 14.4 13.8C14.4 13.4274 14.4 12.65 12 12.65C7.824 12.65 7.2 10.488 7.2 9.2C7.2 7.7188 8.4348 6.2284 10.8 5.84775V4.6138H13.2V5.88915C15.2808 6.36065 16.08 8.0201 16.08 9.2H14.88L13.68 9.2207C13.6632 8.7837 13.422 8.05 12 8.05C10.4412 8.05 9.6 8.6434 9.6 9.2C9.6 9.6301 9.6 10.35 12 10.35C16.176 10.35 16.8 12.512 16.8 13.8C16.8 15.2812 15.5652 16.7716 13.2 17.1523Z" fill="white"/>
</svg>
