<svg width="18" height="18" viewBox="0 0 18 18" fill="none" xmlns="http://www.w3.org/2000/svg">
<path d="M10.125 6H9V9.75L12.21 11.655L12.75 10.7475L10.125 9.1875V6ZM9.75 2.25C7.95979 2.25 6.2429 2.96116 4.97703 4.22703C3.71116 5.4929 3 7.20979 3 9H0.75L3.72 12.0225L6.75 9H4.5C4.5 7.60761 5.05312 6.27226 6.03769 5.28769C7.02226 4.30312 8.35761 3.75 9.75 3.75C11.1424 3.75 12.4777 4.30312 13.4623 5.28769C14.4469 6.27226 15 7.60761 15 9C15 10.3924 14.4469 11.7277 13.4623 12.7123C12.4777 13.6969 11.1424 14.25 9.75 14.25C8.3025 14.25 6.99 13.6575 6.045 12.705L4.98 13.77C5.60371 14.4003 6.34675 14.9001 7.16575 15.24C7.98474 15.58 8.86326 15.7533 9.75 15.75C11.5402 15.75 13.2571 15.0388 14.523 13.773C15.7888 12.5071 16.5 10.7902 16.5 9C16.5 7.20979 15.7888 5.4929 14.523 4.22703C13.2571 2.96116 11.5402 2.25 9.75 2.25Z" fill="white"/>
</svg>
