<svg width="24" height="25" viewBox="0 0 24 25" fill="none" xmlns="http://www.w3.org/2000/svg">
<path fill-rule="evenodd" clip-rule="evenodd" d="M5.5425 11.8146H8.5845C8.6934 11.8146 8.8725 11.8146 9.0363 11.829C9.2388 11.847 9.5844 11.8974 9.9498 12.1017C10.312 12.3045 10.611 12.6035 10.8138 12.9657C11.0172 13.3302 11.0676 13.6758 11.0856 13.8783C11.1009 14.043 11.1 14.2212 11.1 14.3301V19.1991C11.1 19.308 11.1 19.4871 11.0856 19.6509C11.0676 19.8534 11.0181 20.199 10.8129 20.5644C10.6101 20.9266 10.3111 21.2256 9.9489 21.4284C9.66757 21.5831 9.35641 21.6757 9.0363 21.7002C8.8716 21.7146 8.6934 21.7146 8.5845 21.7146H5.5155C5.4075 21.7146 5.2275 21.7146 5.0637 21.7002C4.74353 21.6755 4.43235 21.5825 4.1511 21.4275C3.78892 21.2247 3.48989 20.9257 3.2871 20.5635C3.13212 20.2822 3.03913 19.9711 3.0144 19.6509C3 19.4862 3 19.308 3 19.1991V14.3301C3 14.2221 3 14.0421 3.0144 13.8783C3.0324 13.6758 3.0828 13.3302 3.2871 12.9657C3.48989 12.6035 3.78892 12.3045 4.1511 12.1017C4.43235 11.9467 4.74353 11.8537 5.0637 11.829C5.2284 11.8146 5.4066 11.8146 5.5155 11.8146H5.5425ZM4.8576 13.845C4.8 13.9476 4.8 14.0826 4.8 14.358V19.173C4.8 19.4457 4.8 19.5825 4.8576 19.6842C4.89816 19.7566 4.95796 19.8164 5.0304 19.857C5.133 19.9146 5.2689 19.9146 5.5425 19.9146H8.5575C8.8311 19.9146 8.9679 19.9146 9.0705 19.857C9.14261 19.8163 9.20209 19.7565 9.2424 19.6842C9.3 19.5825 9.3 19.4466 9.3 19.1721V14.3571C9.3 14.0835 9.3 13.9476 9.2424 13.8441C9.20171 13.772 9.14192 13.7125 9.0696 13.6722C8.9679 13.6146 8.832 13.6146 8.5575 13.6146H5.5425C5.2689 13.6146 5.133 13.6146 5.0295 13.6722C4.95739 13.7129 4.89791 13.7727 4.8576 13.845ZM5.5425 3.7146H8.5845C8.6934 3.7146 8.8725 3.7146 9.0363 3.729C9.2388 3.747 9.5844 3.7974 9.9498 4.0017C10.312 4.20449 10.611 4.50352 10.8138 4.8657C11.0172 5.2302 11.0676 5.5758 11.0856 5.7783C11.1009 5.943 11.1 6.1212 11.1 6.2301V8.3991C11.1 8.508 11.1 8.6871 11.0856 8.8509C11.0676 9.0534 11.0181 9.399 10.8129 9.7644C10.6101 10.1266 10.3111 10.4256 9.9489 10.6284C9.66757 10.7831 9.35641 10.8757 9.0363 10.9002C8.8716 10.9155 8.6934 10.9146 8.5845 10.9146H5.5155C5.4075 10.9146 5.2275 10.9146 5.0637 10.9002C4.74353 10.8755 4.43235 10.7825 4.1511 10.6275C3.78892 10.4247 3.48989 10.1257 3.2871 9.7635C3.13212 9.48224 3.03913 9.17107 3.0144 8.8509C3 8.6862 3 8.508 3 8.3991V6.2301C3 6.1221 3 5.9421 3.0144 5.7783C3.0324 5.5758 3.0828 5.2302 3.2871 4.8657C3.48989 4.50352 3.78892 4.20449 4.1511 4.0017C4.43235 3.84672 4.74353 3.75373 5.0637 3.729C5.2284 3.7146 5.4066 3.7146 5.5155 3.7146H5.5425ZM4.8576 5.745C4.8 5.8476 4.8 5.9826 4.8 6.2571V8.3721C4.8 8.6457 4.8 8.7825 4.8576 8.8851C4.89829 8.9572 4.95808 9.01669 5.0304 9.057C5.133 9.1146 5.268 9.1146 5.5425 9.1146H8.5575C8.8311 9.1146 8.9679 9.1146 9.0705 9.057C9.14261 9.01631 9.20209 8.95652 9.2424 8.8842C9.3 8.7825 9.3 8.6466 9.3 8.3721V6.2571C9.3 5.9835 9.3 5.8476 9.2424 5.7441C9.20171 5.67199 9.14192 5.61251 9.0696 5.5722C8.9679 5.5146 8.832 5.5146 8.5575 5.5146H5.5425C5.2689 5.5146 5.133 5.5146 5.0295 5.5722C4.95739 5.61289 4.89791 5.67268 4.8576 5.745ZM15.4425 13.6146H18.4845C18.5934 13.6146 18.7725 13.6146 18.9363 13.6002C19.1388 13.5822 19.4844 13.5327 19.8498 13.3275C20.212 13.1247 20.511 12.8257 20.7138 12.4635C20.9181 12.099 20.9676 11.7534 20.9856 11.5509C21 11.3862 21 11.208 21 11.0991V6.2301C21 6.1221 21 5.9421 20.9856 5.7783C20.9609 5.45812 20.8679 5.14695 20.7129 4.8657C20.5101 4.50352 20.2111 4.20449 19.8489 4.0017C19.5676 3.84672 19.2565 3.75373 18.9363 3.729C18.7716 3.7146 18.5934 3.7146 18.4845 3.7146H15.4155C15.3075 3.7146 15.1275 3.7146 14.9637 3.729C14.7612 3.747 14.4156 3.7974 14.0511 4.0017C13.6889 4.20449 13.3899 4.50352 13.1871 4.8657C13.0321 5.14695 12.9391 5.45812 12.9144 5.7783C12.9 5.943 12.9 6.1212 12.9 6.2301V11.0991C12.9 11.208 12.9 11.3871 12.9144 11.5509C12.9324 11.7534 12.9828 12.099 13.1871 12.4644C13.3899 12.8266 13.6889 13.1256 14.0511 13.3284C14.4156 13.5318 14.7612 13.5822 14.9637 13.6002C15.1284 13.6155 15.3066 13.6146 15.4155 13.6146H15.4425ZM14.7576 11.5842C14.7 11.4816 14.7 11.3466 14.7 11.0721V6.2571C14.7 5.9835 14.7 5.8476 14.7576 5.7441C14.7983 5.67199 14.8581 5.61251 14.9304 5.5722C15.033 5.5146 15.168 5.5146 15.4434 5.5146H18.4584C18.7311 5.5146 18.8679 5.5146 18.9696 5.5722C19.042 5.61276 19.1018 5.67256 19.1424 5.745C19.2 5.8476 19.2 5.9835 19.2 6.2571V11.0721C19.2 11.3457 19.2 11.4816 19.1424 11.5851C19.1017 11.6572 19.0419 11.7167 18.9696 11.757C18.8679 11.8146 18.7311 11.8146 18.4575 11.8146H15.4425C15.1689 11.8146 15.033 11.8146 14.9295 11.757C14.8574 11.7163 14.7979 11.6565 14.7576 11.5842ZM15.4425 21.7146H18.4845C18.5934 21.7146 18.7725 21.7146 18.9363 21.7002C19.1388 21.6822 19.4844 21.6318 19.8498 21.4275C20.212 21.2247 20.511 20.9257 20.7138 20.5635C20.9181 20.199 20.9676 19.8534 20.9856 19.6509C21 19.4862 21 19.308 21 19.1991V17.0301C21 16.9221 21 16.7421 20.9856 16.5783C20.9609 16.2581 20.8679 15.947 20.7129 15.6657C20.5101 15.3035 20.2111 15.0045 19.8489 14.8017C19.5676 14.6467 19.2565 14.5537 18.9363 14.529C18.7716 14.5146 18.5934 14.5146 18.4845 14.5146H15.4155C15.3075 14.5146 15.1275 14.5146 14.9637 14.529C14.7612 14.547 14.4156 14.5974 14.0511 14.8017C13.6889 15.0045 13.3899 15.3035 13.1871 15.6657C13.0321 15.947 12.9391 16.2581 12.9144 16.5783C12.9 16.743 12.9 16.9212 12.9 17.0301V19.1991C12.9 19.308 12.9 19.4871 12.9144 19.6509C12.9324 19.8534 12.9828 20.199 13.1871 20.5644C13.3899 20.9266 13.6889 21.2256 14.0511 21.4284C14.4156 21.6327 14.7612 21.6822 14.9637 21.7002C15.1284 21.7146 15.3066 21.7146 15.4155 21.7146H15.4425ZM14.7576 19.6842C14.7 19.5825 14.7 19.4466 14.7 19.1721V17.0571C14.7 16.7835 14.7 16.6476 14.7576 16.5441C14.7983 16.472 14.8581 16.4125 14.9304 16.3722C15.033 16.3146 15.1689 16.3146 15.4434 16.3146H18.4584C18.7311 16.3146 18.8679 16.3146 18.9696 16.3722C19.0416 16.4127 19.1019 16.4721 19.1424 16.545C19.2 16.6476 19.2 16.7835 19.2 17.058V19.173C19.2 19.4457 19.2 19.5825 19.1424 19.6842C19.1018 19.7566 19.042 19.8164 18.9696 19.857C18.8679 19.9146 18.7311 19.9146 18.4575 19.9146H15.4425C15.1689 19.9146 15.033 19.9146 14.9295 19.857C14.8574 19.8163 14.7979 19.7565 14.7576 19.6842Z" fill="white"/>
</svg>
