<svg width="20" height="20" viewBox="0 0 20 20" fill="none" xmlns="http://www.w3.org/2000/svg">
<path d="M9.99998 4.00024C8.95702 4.00157 7.95716 4.41647 7.21968 5.15395C6.4822 5.89143 6.0673 6.89129 6.06598 7.93424H8.06598C8.06598 6.86724 8.93398 6.00024 9.99998 6.00024C11.066 6.00024 11.934 6.86724 11.934 7.93424C11.934 8.53224 11.453 8.96624 10.718 9.56024C10.4779 9.74834 10.2472 9.94826 10.027 10.1592C9.02898 11.1562 8.99998 12.2152 8.99998 12.3332V13.0002H11L10.999 12.3672C11 12.3512 11.032 11.9812 11.44 11.5742C11.59 11.4242 11.779 11.2742 11.975 11.1162C12.754 10.4852 13.933 9.53224 13.933 7.93424C13.9322 6.8913 13.5176 5.89128 12.7802 5.15372C12.0428 4.41615 11.0429 4.0013 9.99998 4.00024ZM8.99998 14.0002H11V16.0002H8.99998V14.0002Z" fill="#4B5563"/>
<path d="M10 0.000244141C4.486 0.000244141 0 4.48624 0 10.0002C0 15.5142 4.486 20.0002 10 20.0002C15.514 20.0002 20 15.5142 20 10.0002C20 4.48624 15.514 0.000244141 10 0.000244141ZM10 18.0002C5.589 18.0002 2 14.4112 2 10.0002C2 5.58924 5.589 2.00024 10 2.00024C14.411 2.00024 18 5.58924 18 10.0002C18 14.4112 14.411 18.0002 10 18.0002Z" fill="#4B5563"/>
</svg>
