<svg width="24" height="25" viewBox="0 0 24 25" fill="none" xmlns="http://www.w3.org/2000/svg">
<path d="M7.19922 15.3716C7.72965 15.3716 8.23836 15.5823 8.61343 15.9574C8.98851 16.3324 9.19922 16.8411 9.19922 17.3716" stroke="#4B5563" stroke-width="2" stroke-linecap="round" stroke-linejoin="round"/>
<path d="M18.5 12.5718C20.433 12.5718 22 11.0048 22 9.07178C22 7.13878 20.433 5.57178 18.5 5.57178C16.567 5.57178 15 7.13878 15 9.07178C15 11.0048 16.567 12.5718 18.5 12.5718Z" stroke="#4B5563" stroke-width="2" stroke-linecap="round" stroke-linejoin="round"/>
<path d="M7.5 22.5718C10.5376 22.5718 13 20.1093 13 17.0718C13 14.0342 10.5376 11.5718 7.5 11.5718C4.46243 11.5718 2 14.0342 2 17.0718C2 20.1093 4.46243 22.5718 7.5 22.5718Z" stroke="#4B5563" stroke-width="2" stroke-linecap="round" stroke-linejoin="round"/>
<path d="M7.5 7.57178C8.88071 7.57178 10 6.45249 10 5.07178C10 3.69107 8.88071 2.57178 7.5 2.57178C6.11929 2.57178 5 3.69107 5 5.07178C5 6.45249 6.11929 7.57178 7.5 7.57178Z" stroke="#4B5563" stroke-width="2" stroke-linecap="round" stroke-linejoin="round"/>
</svg>
