<svg width="20" height="20" viewBox="0 0 20 20" fill="none" xmlns="http://www.w3.org/2000/svg">
<path d="M10 14.0002C12.206 14.0002 14 12.2062 14 10.0002C14 7.79424 12.206 6.00024 10 6.00024C7.794 6.00024 6 7.79424 6 10.0002C6 12.2062 7.794 14.0002 10 14.0002ZM10 8.00024C11.084 8.00024 12 8.91624 12 10.0002C12 11.0842 11.084 12.0002 10 12.0002C8.916 12.0002 8 11.0842 8 10.0002C8 8.91624 8.916 8.00024 10 8.00024Z" fill="#4B5563"/>
<path d="M0.844978 14.1362L1.84498 15.8662C2.37598 16.7832 3.65398 17.1272 4.57498 16.5962L5.10398 16.2902C5.68252 16.7453 6.32039 17.1194 6.99998 17.4022V18.0002C6.99998 19.1032 7.89698 20.0002 8.99998 20.0002H11C12.103 20.0002 13 19.1032 13 18.0002V17.4022C13.6793 17.1194 14.3172 16.7457 14.896 16.2912L15.425 16.5972C16.348 17.1272 17.623 16.7852 18.156 15.8662L19.155 14.1372C19.42 13.6779 19.4919 13.1322 19.3548 12.62C19.2177 12.1077 18.8829 11.6708 18.424 11.4052L17.919 11.1132C18.0263 10.3758 18.0263 9.62669 17.919 8.88924L18.424 8.59724C18.8827 8.33148 19.2174 7.89458 19.3544 7.3824C19.4914 6.87023 19.4197 6.3246 19.155 5.86524L18.156 4.13624C17.625 3.21624 16.348 2.87124 15.425 3.40424L14.896 3.71024C14.3174 3.25515 13.6796 2.88104 13 2.59824V2.00024C13 0.897244 12.103 0.000244141 11 0.000244141H8.99998C7.89698 0.000244141 6.99998 0.897244 6.99998 2.00024V2.59824C6.32062 2.88108 5.6828 3.25483 5.10398 3.70924L4.57498 3.40324C3.65098 2.87224 2.37498 3.21624 1.84398 4.13524L0.844978 5.86424C0.57996 6.32354 0.508089 6.86925 0.645153 7.38151C0.782216 7.89376 1.117 8.33066 1.57598 8.59624L2.08098 8.88824C1.97321 9.62533 1.97321 10.3742 2.08098 11.1112L1.57598 11.4032C1.11714 11.6692 0.782506 12.1063 0.645471 12.6186C0.508435 13.131 0.580182 13.6767 0.844978 14.1362ZM4.17098 11.3782C4.05806 10.9276 4.00064 10.4648 3.99998 10.0002C3.99998 9.53824 4.05798 9.07424 4.16998 8.62224C4.22272 8.41157 4.20537 8.18945 4.12056 7.98952C4.03576 7.78959 3.88811 7.62274 3.69998 7.51424L2.57698 6.86424L3.57498 5.13524L4.71998 5.79724C4.9067 5.90529 5.12344 5.94986 5.33765 5.92426C5.55185 5.89865 5.75198 5.80426 5.90798 5.65524C6.5845 5.0118 7.40031 4.53306 8.29198 4.25624C8.4968 4.19371 8.67614 4.06707 8.80359 3.89497C8.93105 3.72287 8.99989 3.5144 8.99998 3.30024V2.00024H11V3.30024C11.0001 3.5144 11.0689 3.72287 11.1964 3.89497C11.3238 4.06707 11.5032 4.19371 11.708 4.25624C12.5995 4.53345 13.4152 5.01215 14.092 5.65524C14.2481 5.80397 14.4482 5.89817 14.6624 5.92376C14.8765 5.94936 15.0932 5.90497 15.28 5.79724L16.424 5.13624L17.424 6.86524L16.3 7.51424C16.112 7.62286 15.9644 7.78973 15.8796 7.98962C15.7948 8.18951 15.7774 8.41157 15.83 8.62224C15.942 9.07424 16 9.53824 16 10.0002C16 10.4612 15.942 10.9252 15.829 11.3782C15.7765 11.589 15.7941 11.8112 15.8791 12.0111C15.964 12.211 16.1118 12.3778 16.3 12.4862L17.423 13.1352L16.425 14.8642L15.28 14.2032C15.0933 14.095 14.8765 14.0504 14.6623 14.076C14.448 14.1016 14.2479 14.1961 14.092 14.3452C13.4155 14.9887 12.5996 15.4674 11.708 15.7442C11.5032 15.8068 11.3238 15.9334 11.1964 16.1055C11.0689 16.2776 11.0001 16.4861 11 16.7002L11.002 18.0002H8.99998V16.7002C8.99989 16.4861 8.93105 16.2776 8.80359 16.1055C8.67614 15.9334 8.4968 15.8068 8.29198 15.7442C7.40048 15.467 6.58476 14.9883 5.90798 14.3452C5.75228 14.1957 5.55203 14.101 5.33763 14.0755C5.12322 14.0501 4.90636 14.0953 4.71998 14.2042L3.57598 14.8662L2.57598 13.1372L3.69998 12.4862C3.88817 12.3778 4.03593 12.211 4.12091 12.0111C4.20588 11.8112 4.22346 11.589 4.17098 11.3782Z" fill="#4B5563"/>
</svg>
