<svg width="24" height="25" viewBox="0 0 24 25" fill="none" xmlns="http://www.w3.org/2000/svg">
<path d="M19 3.42871H5C4.46957 3.42871 3.96086 3.63942 3.58579 4.0145C3.21071 4.38957 3 4.89828 3 5.42871V19.4287C3 19.9591 3.21071 20.4679 3.58579 20.8429C3.96086 21.218 4.46957 21.4287 5 21.4287H19C19.5304 21.4287 20.0391 21.218 20.4142 20.8429C20.7893 20.4679 21 19.9591 21 19.4287V5.42871C21 4.89828 20.7893 4.38957 20.4142 4.0145C20.0391 3.63942 19.5304 3.42871 19 3.42871ZM19 19.4287H5V5.42871H19V19.4287ZM9 17.4287H7V12.4287H9V17.4287ZM13 17.4287H11V7.42871H13V17.4287ZM17 17.4287H15V10.4287H17V17.4287Z" fill="#4B5563"/>
</svg>
