<svg width="24" height="25" viewBox="0 0 24 25" fill="none" xmlns="http://www.w3.org/2000/svg">
<path d="M20.625 7.92808C20.0564 7.92808 19.5005 8.0967 19.0277 8.41261C18.5549 8.72852 18.1864 9.17753 17.9688 9.70287C17.7512 10.2282 17.6943 10.8063 17.8052 11.364C17.9162 11.9217 18.19 12.4339 18.5921 12.836C18.9941 13.2381 19.5064 13.5119 20.0641 13.6228C20.6218 13.7338 21.1999 13.6768 21.7252 13.4592C22.2506 13.2416 22.6996 12.8731 23.0155 12.4003C23.3314 11.9276 23.5 11.3717 23.5 10.8031C23.5 10.0406 23.1971 9.30932 22.6579 8.77015C22.1188 8.23098 21.3875 7.92808 20.625 7.92808ZM20.625 12.0352C20.3813 12.0352 20.1431 11.963 19.9405 11.8276C19.7378 11.6922 19.5799 11.4997 19.4867 11.2746C19.3934 11.0495 19.369 10.8017 19.4165 10.5627C19.4641 10.3237 19.5814 10.1041 19.7537 9.93183C19.9261 9.75951 20.1456 9.64216 20.3846 9.59462C20.6236 9.54707 20.8714 9.57147 21.0965 9.66473C21.3217 9.75799 21.5141 9.91592 21.6495 10.1185C21.7849 10.3212 21.8571 10.5594 21.8571 10.8031C21.8571 11.1299 21.7273 11.4433 21.4963 11.6743C21.2652 11.9054 20.9518 12.0352 20.625 12.0352ZM6.25 10.8031C6.25 10.2345 6.08139 9.67861 5.76548 9.20582C5.44957 8.73303 5.00055 8.36453 4.47522 8.14693C3.94988 7.92933 3.37181 7.87239 2.81412 7.98333C2.25642 8.09426 1.74415 8.36808 1.34207 8.77015C0.939993 9.17223 0.666176 9.6845 0.555244 10.2422C0.444311 10.7999 0.501246 11.378 0.718848 11.9033C0.93645 12.4286 1.30495 12.8776 1.77774 13.1936C2.25053 13.5095 2.80638 13.6781 3.375 13.6781C4.1375 13.6781 4.86877 13.3752 5.40793 12.836C5.9471 12.2968 6.25 11.5656 6.25 10.8031ZM3.375 12.0352C3.13131 12.0352 2.89308 11.963 2.69046 11.8276C2.48783 11.6922 2.32991 11.4997 2.23665 11.2746C2.14339 11.0495 2.11899 10.8017 2.16653 10.5627C2.21408 10.3237 2.33143 10.1041 2.50374 9.93183C2.67606 9.75951 2.89561 9.64216 3.13462 9.59462C3.37363 9.54707 3.62138 9.57147 3.84652 9.66473C4.07167 9.75799 4.2641 9.91592 4.39949 10.1185C4.53488 10.3212 4.60714 10.5594 4.60714 10.8031C4.60714 11.1299 4.47733 11.4433 4.24626 11.6743C4.01519 11.9054 3.70179 12.0352 3.375 12.0352ZM8.30357 8.74951C8.87219 8.74951 9.42805 8.5809 9.90084 8.26499C10.3736 7.94908 10.7421 7.50006 10.9597 6.97473C11.1773 6.44939 11.2343 5.87132 11.1233 5.31363C11.0124 4.75593 10.7386 4.24366 10.3365 3.84158C9.93443 3.43951 9.42215 3.16569 8.86446 3.05476C8.30676 2.94382 7.7287 3.00076 7.20336 3.21836C6.67802 3.43596 6.22901 3.80446 5.9131 4.27725C5.59719 4.75004 5.42857 5.30589 5.42857 5.87451C5.42857 6.63701 5.73147 7.36828 6.27064 7.90744C6.80981 8.44661 7.54108 8.74951 8.30357 8.74951ZM8.30357 4.64237C8.54727 4.64237 8.78549 4.71463 8.98811 4.85002C9.19074 4.98541 9.34867 5.17785 9.44192 5.40299C9.53518 5.62814 9.55958 5.87588 9.51204 6.11489C9.4645 6.3539 9.34715 6.57345 9.17483 6.74577C9.00251 6.91809 8.78296 7.03544 8.54395 7.08298C8.30494 7.13052 8.0572 7.10612 7.83205 7.01286C7.60691 6.91961 7.41447 6.76168 7.27908 6.55905C7.14369 6.35643 7.07143 6.11821 7.07143 5.87451C7.07143 5.54773 7.20124 5.23433 7.43232 5.00326C7.66339 4.77218 7.97679 4.64237 8.30357 4.64237ZM15.6964 8.74951C16.2651 8.74951 16.8209 8.5809 17.2937 8.26499C17.7665 7.94908 18.135 7.50006 18.3526 6.97473C18.5702 6.44939 18.6271 5.87132 18.5162 5.31363C18.4053 4.75593 18.1314 4.24366 17.7294 3.84158C17.3273 3.43951 16.815 3.16569 16.2573 3.05476C15.6996 2.94382 15.1216 3.00076 14.5962 3.21836C14.0709 3.43596 13.6219 3.80446 13.306 4.27725C12.99 4.75004 12.8214 5.30589 12.8214 5.87451C12.8214 6.63701 13.1243 7.36828 13.6635 7.90744C14.2027 8.44661 14.9339 8.74951 15.6964 8.74951ZM15.6964 4.64237C15.9401 4.64237 16.1783 4.71463 16.381 4.85002C16.5836 4.98541 16.7415 5.17785 16.8348 5.40299C16.928 5.62814 16.9524 5.87588 16.9049 6.11489C16.8574 6.3539 16.74 6.57345 16.5677 6.74577C16.3954 6.91809 16.1758 7.03544 15.9368 7.08298C15.6978 7.13052 15.4501 7.10612 15.2249 7.01286C14.9998 6.91961 14.8073 6.76168 14.6719 6.55905C14.5366 6.35643 14.4643 6.11821 14.4643 5.87451C14.4643 5.54773 14.5941 5.23433 14.8252 5.00326C15.0562 4.77218 15.3696 4.64237 15.6964 4.64237ZM18.0704 14.9985C17.6531 14.7683 17.2854 14.4582 16.9881 14.0857C16.6909 13.7132 16.47 13.2858 16.3382 12.8279C16.0651 11.8887 15.4945 11.0634 14.7122 10.4762C13.9299 9.88898 12.9782 9.57152 12 9.57152C11.0218 9.57152 10.0701 9.88898 9.28782 10.4762C8.50553 11.0634 7.93495 11.8887 7.66183 12.8279C7.398 13.7493 6.77949 14.5284 5.94197 14.9944C5.13853 15.4292 4.50295 16.1194 4.13577 16.9558C3.7686 17.7923 3.69077 18.7273 3.9146 19.613C4.13843 20.4987 4.65115 21.2844 5.37166 21.846C6.09217 22.4076 6.97934 22.713 7.89286 22.7138C8.44029 22.7153 8.98237 22.606 9.48643 22.3924C11.0934 21.7298 12.8973 21.7298 14.5043 22.3924C15.4777 22.8157 16.5771 22.8458 17.5721 22.4763C18.5672 22.1068 19.3805 21.3665 19.8417 20.4104C20.3028 19.4544 20.3759 18.357 20.0457 17.3483C19.7155 16.3395 19.0076 15.4978 18.0704 14.9996V14.9985ZM16.1071 21.0709C15.7736 21.0712 15.4435 21.0038 15.1368 20.8728C13.125 20.0418 10.8658 20.0418 8.85393 20.8728C8.26928 21.1245 7.60989 21.1402 7.0139 20.9167C6.4179 20.6931 5.93154 20.2476 5.65667 19.6735C5.38181 19.0993 5.33978 18.4411 5.53938 17.8366C5.73899 17.2322 6.16474 16.7284 6.72746 16.4309C7.33248 16.0968 7.86571 15.6466 8.29665 15.1063C8.7276 14.5659 9.04781 13.9459 9.23897 13.2817C9.41256 12.6837 9.77562 12.1583 10.2735 11.7843C10.7714 11.4104 11.3773 11.2082 12 11.2082C12.6227 11.2082 13.2286 11.4104 13.7265 11.7843C14.2244 12.1583 14.5874 12.6837 14.761 13.2817C14.9528 13.9472 15.274 14.5682 15.7062 15.1093C16.1384 15.6504 16.6731 16.1009 17.2797 16.435C17.7642 16.6948 18.1479 17.1092 18.3697 17.6122C18.5916 18.1152 18.6389 18.678 18.5041 19.2109C18.3693 19.7439 18.0601 20.2165 17.6258 20.5535C17.1915 20.8906 16.6569 21.0727 16.1071 21.0709Z" fill="#4B5563" stroke="#4B5563" stroke-width="0.5"/>
</svg>
