<svg width="25" height="22" viewBox="0 0 25 22" fill="none" xmlns="http://www.w3.org/2000/svg">
<path fill-rule="evenodd" clip-rule="evenodd" d="M12.4999 9.50009C8.77753 9.50009 3.49987 15.2545 3.49987 18.8868C3.49987 20.5227 4.75659 21.5001 6.86268 21.5001C9.15206 21.5001 10.6638 20.3245 12.4999 20.3245C14.3519 20.3245 15.8678 21.5001 18.1371 21.5001C20.2432 21.5001 21.4999 20.5227 21.4999 18.8868C21.4999 15.2545 16.2222 9.50009 12.4999 9.50009ZM5.59612 8.90899C5.10862 7.28477 3.60675 6.2329 2.24175 6.55915C0.876747 6.8854 0.165653 8.46649 0.653153 10.0907C1.14065 11.7149 2.64253 12.7668 4.00753 12.4406C5.37253 12.1143 6.08362 10.5332 5.59612 8.90899ZM9.56737 7.93493C11.0177 7.55337 11.7433 5.59399 11.1883 3.55868C10.6333 1.52337 9.00768 0.183211 7.55737 0.564774C6.10706 0.946336 5.38143 2.90571 5.93643 4.94102C6.49143 6.97634 8.11753 8.31696 9.56737 7.93493ZM22.7575 6.55962C21.3925 6.23337 19.8911 7.28524 19.4032 8.90946C18.9157 10.5337 19.6267 12.1148 20.9917 12.441C22.3567 12.7673 23.8582 11.7154 24.3461 10.0912C24.8336 8.46696 24.1225 6.88587 22.7575 6.55962ZM15.4324 7.93493C16.8827 8.31649 18.5083 6.97634 19.0633 4.94102C19.6183 2.90571 18.8927 0.946805 17.4424 0.564774C15.9921 0.182743 14.3664 1.52337 13.8114 3.55868C13.2564 5.59399 13.9821 7.55337 15.4324 7.93493Z" fill="white"/>
</svg>
