<svg width="16" height="16" viewBox="0 0 16 16" fill="none" xmlns="http://www.w3.org/2000/svg">
<g clip-path="url(#clip0_303_2475)">
<mask id="mask0_303_2475" style="mask-type:luminance" maskUnits="userSpaceOnUse" x="0" y="0" width="16" height="16">
<rect width="16" height="16" fill="white"/>
</mask>
<g mask="url(#mask0_303_2475)">
<path fill-rule="evenodd" clip-rule="evenodd" d="M8.00024 7.00001C5.51868 7.00001 2.00024 10.8363 2.00024 13.2578C2.00024 14.3484 2.83805 15 4.24212 15C5.76837 15 6.77618 14.2163 8.00024 14.2163C9.23493 14.2163 10.2456 15 11.7584 15C13.1624 15 14.0002 14.3484 14.0002 13.2578C14.0002 10.8363 10.4818 7.00001 8.00024 7.00001ZM3.39774 6.60594C3.07274 5.52313 2.07149 4.82188 1.16149 5.03938C0.25149 5.25688 -0.222573 6.31094 0.102427 7.39376C0.427427 8.47657 1.42868 9.17782 2.33868 8.96032C3.24868 8.74282 3.72274 7.68876 3.39774 6.60594ZM6.04524 5.95657C7.01212 5.70219 7.49587 4.39594 7.12587 3.03907C6.75587 1.68219 5.67212 0.788757 4.70524 1.04313C3.73837 1.29751 3.25462 2.60376 3.62462 3.96063C3.99462 5.31751 5.07868 6.21126 6.04524 5.95657ZM14.8387 5.03969C13.9287 4.82219 12.9277 5.52344 12.6024 6.60626C12.2774 7.68907 12.7515 8.74313 13.6615 8.96063C14.5715 9.17813 15.5724 8.47688 15.8977 7.39407C16.2227 6.31126 15.7487 5.25719 14.8387 5.03969ZM9.95524 5.95657C10.9221 6.21094 12.0059 5.31751 12.3759 3.96063C12.7459 2.60376 12.2621 1.29782 11.2952 1.04313C10.3284 0.788444 9.24461 1.68219 8.87461 3.03907C8.50461 4.39594 8.98837 5.70219 9.95524 5.95657Z" fill="#3B82F6"/>
</g>
</g>
<defs>
<clipPath id="clip0_303_2475">
<rect width="16" height="16" fill="white"/>
</clipPath>
</defs>
</svg>
