<svg width="16" height="16" viewBox="0 0 16 16" fill="none" xmlns="http://www.w3.org/2000/svg">
<path d="M10.7657 10.5498C11.4306 10.1803 11.3444 8.75625 10.5739 7.36692C10.2433 6.76871 9.83695 6.28428 9.43055 5.94562C8.94458 6.30624 8.35593 6.50182 7.75078 6.50374C7.14471 6.5024 6.55502 6.30679 6.06831 5.94562C5.66191 6.28428 5.2566 6.76925 4.92498 7.36692C4.15391 8.75571 4.06884 10.1803 4.73533 10.5498C5.03227 10.7189 5.34546 10.5921 5.66841 10.281C5.60792 10.6161 5.57764 10.956 5.57792 11.2965C5.57792 12.8885 6.19564 14.1749 6.95587 14.1749C7.41429 14.1749 7.64133 13.7062 7.75024 12.9893C7.85861 13.7013 8.0862 14.1749 8.54136 14.1749C9.29834 14.1749 9.92094 12.8879 9.92094 11.2965C9.92094 10.9389 9.88734 10.5975 9.8299 10.2816C10.155 10.5932 10.4671 10.7221 10.7652 10.5509L10.7657 10.5498ZM7.7497 5.96188C8.05713 5.96647 8.36241 5.90987 8.64776 5.79537C8.93312 5.68087 9.19285 5.51076 9.41184 5.29494C9.63083 5.07911 9.80471 4.82189 9.92336 4.53824C10.042 4.25459 10.1031 3.95017 10.1029 3.6427C10.1028 3.33523 10.0416 3.03086 9.92273 2.74729C9.80388 2.46372 9.62982 2.20662 9.41068 1.99095C9.19154 1.77528 8.93169 1.60535 8.64625 1.49105C8.36082 1.37675 8.0555 1.32037 7.74807 1.32517C7.13935 1.33469 6.55879 1.58324 6.13176 2.01715C5.70473 2.45107 5.46549 3.03553 5.4657 3.64433C5.46591 4.25313 5.70556 4.83742 6.1329 5.27103C6.56023 5.70464 7.14097 5.95279 7.7497 5.96188ZM12.4065 7.43249C12.9016 7.41802 13.3716 7.21115 13.7168 6.85579C14.0619 6.50043 14.2549 6.02457 14.2549 5.5292C14.2549 5.03384 14.0619 4.55797 13.7168 4.20261C13.3716 3.84726 12.9016 3.64039 12.4065 3.62591C11.9015 3.62599 11.4173 3.82664 11.0603 4.18372C10.7033 4.54081 10.5028 5.02509 10.5029 5.53001C10.503 6.03494 10.7036 6.51916 11.0607 6.87614C11.4178 7.23313 11.9021 7.43364 12.407 7.43357L12.4065 7.43249ZM14.7256 8.58665C14.4536 8.09464 14.1209 7.69692 13.7871 7.41894C13.3878 7.71477 12.9045 7.87521 12.4075 7.87681C11.9979 7.87681 11.6164 7.76465 11.2826 7.57879C11.5514 8.17104 11.7177 8.77088 11.7486 9.30733C11.7996 10.1288 11.5427 10.7378 11.029 11.0223C10.919 11.083 10.7993 11.124 10.6752 11.1437C10.6443 11.3561 10.6232 11.5772 10.6232 11.8102C10.6232 13.1177 11.1298 14.1738 11.7546 14.1738C12.1306 14.1738 12.3181 13.7891 12.407 13.2006C12.4953 13.7858 12.6823 14.1738 13.0572 14.1738C13.6777 14.1738 14.1897 13.1172 14.1897 11.8113C14.1897 11.517 14.161 11.2369 14.1139 10.9768C14.3805 11.2331 14.6373 11.3388 14.8822 11.1979C15.4279 10.8944 15.3574 9.7251 14.7251 8.58611L14.7256 8.58665ZM3.09295 7.43249C3.46928 7.43227 3.8371 7.32048 4.14991 7.11124C4.46272 6.90201 4.70646 6.60472 4.85033 6.25697C4.9942 5.90922 5.03173 5.52663 4.95818 5.15755C4.88463 4.78847 4.7033 4.44949 4.43712 4.18345C4.17093 3.91742 3.83184 3.73628 3.46272 3.66294C3.09361 3.5896 2.71103 3.62735 2.36336 3.77142C2.01569 3.91549 1.71855 4.1594 1.50949 4.47233C1.30043 4.78525 1.18885 5.15314 1.18885 5.52947C1.18899 6.03443 1.38965 6.51866 1.7467 6.87571C2.10376 7.23277 2.58799 7.43343 3.09295 7.43357V7.43249ZM4.46656 11.0207C3.60392 10.5411 3.52481 9.11117 4.21948 7.57771C3.87613 7.77269 3.48833 7.87589 3.09349 7.87736C2.57547 7.87736 2.1008 7.70396 1.71174 7.41894C1.3785 7.69637 1.04634 8.0941 0.773241 8.58557C0.140889 9.72564 0.071531 10.895 0.617727 11.1973C0.861564 11.3371 1.11895 11.2326 1.38392 10.9773C1.33571 11.2525 1.31123 11.5313 1.31077 11.8107C1.31077 13.1177 1.81741 14.1732 2.44217 14.1732C2.81822 14.1732 3.00571 13.7885 3.09457 13.2006C3.18398 13.7858 3.37092 14.1738 3.74481 14.1738C4.36632 14.1738 4.8773 13.1172 4.8773 11.8113C4.8773 11.5766 4.85562 11.355 4.82474 11.1426C4.69927 11.1231 4.57822 11.0816 4.46711 11.0201L4.46656 11.0207Z" fill="#3B82F6"/>
</svg>
