<svg width="20" height="20" viewBox="0 0 20 20" fill="none" xmlns="http://www.w3.org/2000/svg">
<rect x="2" y="2" width="16" height="16" fill="black" fill-opacity="0.01"/>
<mask id="mask0_38_1872" style="mask-type:luminance" maskUnits="userSpaceOnUse" x="2" y="2" width="16" height="16">
<rect x="2" y="2" width="16" height="16" fill="white"/>
</mask>
<g mask="url(#mask0_38_1872)">
</g>
<path fill-rule="evenodd" clip-rule="evenodd" d="M10.4938 19.3818L10.4847 19.3834L10.4255 19.4126L10.4088 19.4159L10.3972 19.4126L10.338 19.3834C10.3291 19.3807 10.3224 19.3821 10.318 19.3876L10.3147 19.3959L10.3005 19.7526L10.3047 19.7693L10.313 19.7801L10.3997 19.8418L10.4122 19.8451L10.4222 19.8418L10.5088 19.7801L10.5188 19.7668L10.5222 19.7526L10.508 19.3968C10.5058 19.3879 10.501 19.3829 10.4938 19.3818ZM10.7147 19.2876L10.7038 19.2893L10.5497 19.3668L10.5413 19.3751L10.5388 19.3843L10.5538 19.7426L10.558 19.7526L10.5647 19.7584L10.7322 19.8359C10.7427 19.8387 10.7508 19.8365 10.7563 19.8293L10.7597 19.8176L10.7313 19.3059C10.7285 19.2959 10.723 19.2898 10.7147 19.2876ZM10.1188 19.2893C10.1151 19.2871 10.1108 19.2863 10.1066 19.2873C10.1024 19.2882 10.0987 19.2907 10.0963 19.2943L10.0913 19.3059L10.063 19.8176C10.0635 19.8276 10.0683 19.8343 10.0772 19.8376L10.0897 19.8359L10.2572 19.7584L10.2655 19.7518L10.2688 19.7426L10.283 19.3843L10.2805 19.3743L10.2722 19.3659L10.1188 19.2893Z" fill="#9CA3AF"/>
<path fill-rule="evenodd" clip-rule="evenodd" d="M8.74972 1.66675C7.62022 1.66684 6.50711 1.93705 5.50327 2.45483C4.49943 2.9726 3.63397 3.72293 2.97909 4.64321C2.32421 5.56349 1.8989 6.62704 1.73865 7.74512C1.5784 8.8632 1.68785 10.0034 2.05787 11.0706C2.4279 12.1377 3.04776 13.101 3.86575 13.8799C4.68375 14.6587 5.67614 15.2307 6.76015 15.5481C7.84416 15.8654 8.98834 15.919 10.0972 15.7042C11.2061 15.4894 12.2476 15.0126 13.1347 14.3134L16.1781 17.3567C16.3352 17.5085 16.5457 17.5925 16.7642 17.5906C16.9827 17.5887 17.1917 17.5011 17.3462 17.3466C17.5007 17.1921 17.5884 16.9831 17.5903 16.7646C17.5922 16.5461 17.5082 16.3356 17.3564 16.1784L14.3131 13.1351C15.1364 12.0906 15.649 10.8354 15.7923 9.51319C15.9356 8.19096 15.7037 6.8551 15.1232 5.65849C14.5428 4.46189 13.6371 3.45288 12.51 2.74694C11.3828 2.041 10.0797 1.66666 8.74972 1.66675ZM3.33306 8.75008C3.33306 7.31349 3.90374 5.93574 4.91956 4.91992C5.93538 3.9041 7.31313 3.33341 8.74972 3.33341C10.1863 3.33341 11.5641 3.9041 12.5799 4.91992C13.5957 5.93574 14.1664 7.31349 14.1664 8.75008C14.1664 10.1867 13.5957 11.5644 12.5799 12.5802C11.5641 13.5961 10.1863 14.1667 8.74972 14.1667C7.31313 14.1667 5.93538 13.5961 4.91956 12.5802C3.90374 11.5644 3.33306 10.1867 3.33306 8.75008Z" fill="#9CA3AF"/>
</svg>
