<svg width="25" height="24" viewBox="0 0 25 24" fill="none" xmlns="http://www.w3.org/2000/svg">
<g clip-path="url(#clip0_38_1238)">
<mask id="mask0_38_1238" style="mask-type:luminance" maskUnits="userSpaceOnUse" x="0" y="0" width="25" height="24">
<rect x="0.5" width="24" height="24" fill="white"/>
</mask>
<g mask="url(#mask0_38_1238)">
<path fill-rule="evenodd" clip-rule="evenodd" d="M9.94697 8.19394L12.5579 10.8096C12.7032 10.9549 12.7032 11.1939 12.5579 11.3393L12.0282 11.8689C11.8829 12.0143 11.6438 12.0143 11.4985 11.8689L8.8876 9.25332L6.76416 11.3768L9.37979 13.9924C9.5251 14.1377 9.5251 14.3768 9.37979 14.5221L8.8501 15.0518C8.70479 15.1971 8.46572 15.1971 8.32041 15.0518L5.70479 12.4314L4.46729 13.6689C3.65635 14.4799 3.26729 15.5955 3.38916 16.7346L3.72197 19.7158L0.609473 22.8283C0.46416 22.9736 0.46416 23.2127 0.609473 23.358L1.13916 23.8877C1.28447 24.033 1.52354 24.033 1.66885 23.8877L4.77666 20.7799L7.75791 21.1127C8.87822 21.2346 10.0032 20.8596 10.8235 20.0346L19.3501 11.508L12.9892 5.14707L9.94697 8.19394ZM24.3954 3.82051L20.6829 0.108008C20.5376 -0.0373047 20.2985 -0.0373047 20.1532 0.108008L19.6235 0.637695C19.4782 0.783008 19.4782 1.02207 19.6235 1.16738L20.9501 2.49395L18.8267 4.61738L16.1735 1.96426L15.3767 1.16738C15.2313 1.02207 14.9923 1.02207 14.847 1.16738L13.2579 2.75645C13.1126 2.90176 13.1126 3.14082 13.2579 3.28613L14.0548 4.08301L20.4157 10.4533L21.2126 11.2502C21.3579 11.3955 21.597 11.3955 21.7423 11.2502L23.3313 9.65644C23.4767 9.51113 23.4767 9.27207 23.3313 9.12676L19.886 5.68145L22.0095 3.55801L23.336 4.88457C23.4813 5.02988 23.7204 5.02988 23.8657 4.88457L24.3954 4.35488C24.5407 4.20488 24.5407 3.97051 24.3954 3.82051Z" fill="white"/>
</g>
</g>
<defs>
<clipPath id="clip0_38_1238">
<rect width="24" height="24" fill="white" transform="translate(0.5)"/>
</clipPath>
</defs>
</svg>
