<svg width="16" height="16" viewBox="0 0 16 16" fill="none" xmlns="http://www.w3.org/2000/svg">
<path d="M13.5263 9.9026V13.3634C13.5261 13.8531 13.3315 14.3227 12.9853 14.6689C12.639 15.0152 12.1694 15.2098 11.6798 15.21H2.63713C2.39374 15.2099 2.15277 15.1617 1.92807 15.0682C1.70337 14.9747 1.49936 14.8377 1.32776 14.6651C1.15617 14.4925 1.02038 14.2877 0.928188 14.0624C0.835997 13.8372 0.789225 13.5959 0.79056 13.3525V4.32003C0.789112 4.07703 0.835906 3.83616 0.928231 3.61138C1.02056 3.38659 1.15657 3.18237 1.32841 3.01053C1.50024 2.8387 1.70446 2.70268 1.92925 2.61036C2.15403 2.51803 2.3949 2.47124 2.6379 2.47269H6.09797" stroke="#7F7F7F" stroke-width="1.16921" stroke-linecap="round" stroke-linejoin="round"/>
<path d="M13.526 5.65764L10.3419 2.47273M3.97363 10.9643V9.27672C3.97519 8.99845 4.08588 8.73109 4.28152 8.53389L11.7114 1.10398C11.81 1.00429 11.9274 0.925146 12.0568 0.871132C12.1862 0.817119 12.325 0.789307 12.4652 0.789307C12.6054 0.789307 12.7442 0.817119 12.8736 0.871132C13.003 0.925146 13.1203 1.00429 13.2189 1.10398L14.8956 2.78062C14.9953 2.8792 15.0744 2.99659 15.1284 3.12597C15.1824 3.25535 15.2102 3.39416 15.2102 3.53437C15.2102 3.67457 15.1824 3.81338 15.1284 3.94276C15.0744 4.07215 14.9953 4.18953 14.8956 4.28811L7.46566 11.718C7.26809 11.9142 7.00126 12.0248 6.72283 12.0259H5.03527C4.8958 12.0261 4.75765 11.9988 4.62876 11.9455C4.49986 11.8922 4.38275 11.814 4.28412 11.7154C4.1855 11.6168 4.10731 11.4997 4.05403 11.3708C4.00075 11.2419 3.97343 11.1038 3.97363 10.9643Z" stroke="#7F7F7F" stroke-width="1.16921" stroke-linecap="round" stroke-linejoin="round"/>
</svg>
