<svg width="15" height="16" viewBox="0 0 15 16" fill="none" xmlns="http://www.w3.org/2000/svg">
<path d="M1.57738 2.67989H3.85737V1.91989C3.85737 1.51677 4.01751 1.13015 4.30256 0.845098C4.58762 0.560044 4.97423 0.399902 5.37736 0.399902H9.93734C10.3405 0.399902 10.7271 0.560044 11.0121 0.845098C11.2972 1.13015 11.4573 1.51677 11.4573 1.91989V2.67989H13.7373C13.9389 2.67989 14.1322 2.75996 14.2747 2.90249C14.4172 3.04502 14.4973 3.23832 14.4973 3.43989C14.4973 3.64145 14.4172 3.83476 14.2747 3.97729C14.1322 4.11981 13.9389 4.19988 13.7373 4.19988H12.9773V14.0798C12.9773 14.483 12.8172 14.8696 12.5321 15.1546C12.2471 15.4397 11.8605 15.5998 11.4573 15.5998H3.85737C3.45424 15.5998 3.06762 15.4397 2.78257 15.1546C2.49752 14.8696 2.33738 14.483 2.33738 14.0798V4.19988H1.57738C1.37582 4.19988 1.18251 4.11981 1.03998 3.97729C0.897454 3.83476 0.817383 3.64145 0.817383 3.43989C0.817383 3.23832 0.897454 3.04502 1.03998 2.90249C1.18251 2.75996 1.37582 2.67989 1.57738 2.67989ZM3.85737 4.19988V14.0798H11.4573V4.19988H3.85737ZM5.37736 2.67989H9.93734V1.91989H5.37736V2.67989ZM5.37736 5.71988H6.89735V12.5598H5.37736V5.71988ZM8.41734 5.71988H9.93734V12.5598H8.41734V5.71988Z" fill="#7F7F7F"/>
</svg>
