<svg width="24" height="24" viewBox="0 0 24 24" fill="none" xmlns="http://www.w3.org/2000/svg">
<path d="M3.24967 23.6051C2.44759 23.6051 1.7612 23.3198 1.19051 22.7491C0.619813 22.1784 0.33398 21.4915 0.333008 20.6885V17.7718C0.333008 17.3586 0.473008 17.0125 0.753008 16.7335C1.03301 16.4545 1.37912 16.3145 1.79134 16.3135C2.20356 16.3125 2.55016 16.4525 2.83113 16.7335C3.1121 17.0145 3.25162 17.3606 3.24967 17.7718V20.6885H20.7497V17.7718C20.7497 17.3586 20.8897 17.0125 21.1697 16.7335C21.4497 16.4545 21.7958 16.3145 22.208 16.3135C22.6202 16.3125 22.9668 16.4525 23.2478 16.7335C23.5288 17.0145 23.6683 17.3606 23.6663 17.7718V20.6885C23.6663 21.4906 23.381 22.1774 22.8103 22.7491C22.2396 23.3208 21.5527 23.6061 20.7497 23.6051H3.24967ZM10.5413 5.88641L7.80696 8.62078C7.51529 8.91245 7.16918 9.05245 6.76863 9.04078C6.36807 9.02912 6.02148 8.87696 5.72884 8.58433C5.46148 8.29266 5.32148 7.95238 5.30884 7.56349C5.2962 7.1746 5.4362 6.83433 5.72884 6.54266L10.9788 1.29266C11.1247 1.14683 11.2827 1.04378 11.4528 0.983499C11.6229 0.923221 11.8052 0.892596 11.9997 0.891624C12.1941 0.890652 12.3764 0.921276 12.5465 0.983499C12.7167 1.04572 12.8747 1.14878 13.0205 1.29266L18.2705 6.54266C18.5622 6.83433 18.7022 7.1746 18.6905 7.56349C18.6788 7.95238 18.5388 8.29266 18.2705 8.58433C17.9788 8.87599 17.6327 9.02814 17.2322 9.04078C16.8316 9.05342 16.485 8.91342 16.1924 8.62078L13.458 5.88641V16.3135C13.458 16.7267 13.318 17.0733 13.038 17.3533C12.758 17.6333 12.4119 17.7728 11.9997 17.7718C11.5874 17.7708 11.2413 17.6308 10.9613 17.3518C10.6813 17.0728 10.5413 16.7267 10.5413 16.3135V5.88641Z" fill="#7F7F7F"/>
</svg>
