<svg width="20" height="20" viewBox="0 0 20 20" fill="none" xmlns="http://www.w3.org/2000/svg">
<path d="M9.99996 1.66675C5.39746 1.66675 1.66663 5.39758 1.66663 10.0001C1.66663 14.6026 5.39746 18.3334 9.99996 18.3334C14.6025 18.3334 18.3333 14.6026 18.3333 10.0001C18.3333 5.39758 14.6025 1.66675 9.99996 1.66675ZM9.99996 3.33341C13.6816 3.33341 16.6666 6.31841 16.6666 10.0001C16.6666 13.2787 14.2968 15.9985 11.1783 16.5561V12.5294H13.1494L13.4423 10.2589H11.1914V8.81193C11.1914 8.15526 11.3744 7.71167 12.316 7.71167H13.5058V5.6853C12.9267 5.62614 12.3452 5.59737 11.7627 5.59904C10.0343 5.59904 8.85087 6.65391 8.85087 8.59058V10.2621H6.89775V12.5326H8.85087V16.561C5.71804 16.0153 3.33329 13.289 3.33329 10.0001C3.33329 6.31841 6.31829 3.33341 9.99996 3.33341Z" fill="#7F7F7F"/>
</svg>
