<svg width="20" height="20" viewBox="0 0 20 20" fill="none" xmlns="http://www.w3.org/2000/svg">
<path d="M3.77778 2C2.79556 2 2 2.79556 2 3.77778V16.2222C2 17.2044 2.79556 18 3.77778 18H16.2222C17.2044 18 18 17.2044 18 16.2222V3.77778C18 2.79556 17.2044 2 16.2222 2H3.77778ZM3.77778 3.77778H16.2222V16.2222H3.77778V3.77778ZM6.24826 4.94792C5.48649 4.94792 5.02951 5.40585 5.02951 6.01562C5.02951 6.6254 5.48654 7.0816 6.17188 7.0816C6.93365 7.0816 7.39062 6.6254 7.39062 6.01562C7.39062 5.40585 6.9336 4.94792 6.24826 4.94792ZM5.09028 8.22222V14.4444H7.33333V8.22222H5.09028ZM9.18403 8.22222V14.4444H11.4271V11.0434C11.4271 10.031 12.1494 9.88542 12.3663 9.88542C12.5832 9.88542 13.1632 10.103 13.1632 11.0434V14.4444H15.3333V11.0434C15.3333 9.09051 14.4655 8.22222 13.3802 8.22222C12.2949 8.22222 11.716 8.58361 11.4271 9.09028V8.22222H9.18403Z" fill="#7F7F7F"/>
</svg>
