<svg width="24" height="24" viewBox="0 0 24 24" fill="none" xmlns="http://www.w3.org/2000/svg">
<g id="Property 1=Pets &#38; Clients Dark">
<path id="Vector" d="M20.625 7.07066C20.0564 7.07066 19.5005 7.23928 19.0277 7.55519C18.5549 7.8711 18.1864 8.32011 17.9688 8.84545C17.7512 9.37078 17.6943 9.94885 17.8052 10.5065C17.9162 11.0642 18.19 11.5765 18.5921 11.9786C18.9941 12.3807 19.5064 12.6545 20.0641 12.7654C20.6218 12.8764 21.1999 12.8194 21.7252 12.6018C22.2506 12.3842 22.6996 12.0157 23.0155 11.5429C23.3314 11.0701 23.5 10.5143 23.5 9.94566C23.5 9.18316 23.1971 8.4519 22.6579 7.91273C22.1188 7.37356 21.3875 7.07066 20.625 7.07066ZM20.625 11.1778C20.3813 11.1778 20.1431 11.1055 19.9405 10.9702C19.7378 10.8348 19.5799 10.6423 19.4867 10.4172C19.3934 10.192 19.369 9.94429 19.4165 9.70528C19.4641 9.46627 19.5814 9.24672 19.7537 9.0744C19.9261 8.90209 20.1456 8.78474 20.3846 8.73719C20.6236 8.68965 20.8714 8.71405 21.0965 8.80731C21.3217 8.90057 21.5141 9.0585 21.6495 9.26112C21.7849 9.46374 21.8571 9.70197 21.8571 9.94566C21.8571 10.2724 21.7273 10.5858 21.4963 10.8169C21.2652 11.048 20.9518 11.1778 20.625 11.1778ZM6.25 9.94566C6.25 9.37704 6.08139 8.82119 5.76548 8.3484C5.44957 7.87561 5.00055 7.50711 4.47522 7.28951C3.94988 7.07191 3.37181 7.01497 2.81412 7.1259C2.25642 7.23684 1.74415 7.51065 1.34207 7.91273C0.939993 8.31481 0.666176 8.82708 0.555244 9.38478C0.444311 9.94247 0.501246 10.5205 0.718848 11.0459C0.93645 11.5712 1.30495 12.0202 1.77774 12.3361C2.25053 12.652 2.80638 12.8207 3.375 12.8207C4.1375 12.8207 4.86877 12.5178 5.40793 11.9786C5.9471 11.4394 6.25 10.7082 6.25 9.94566ZM3.375 11.1778C3.13131 11.1778 2.89308 11.1055 2.69046 10.9702C2.48783 10.8348 2.32991 10.6423 2.23665 10.4172C2.14339 10.192 2.11899 9.94429 2.16653 9.70528C2.21408 9.46627 2.33143 9.24672 2.50374 9.0744C2.67606 8.90209 2.89561 8.78474 3.13462 8.73719C3.37363 8.68965 3.62138 8.71405 3.84652 8.80731C4.07167 8.90057 4.2641 9.0585 4.39949 9.26112C4.53488 9.46374 4.60714 9.70197 4.60714 9.94566C4.60714 10.2724 4.47733 10.5858 4.24626 10.8169C4.01519 11.048 3.70179 11.1778 3.375 11.1778ZM8.30357 7.89209C8.87219 7.89209 9.42805 7.72347 9.90084 7.40757C10.3736 7.09166 10.7421 6.64264 10.9597 6.11731C11.1773 5.59197 11.2343 5.0139 11.1233 4.45621C11.0124 3.89851 10.7386 3.38623 10.3365 2.98416C9.93443 2.58208 9.42215 2.30827 8.86446 2.19733C8.30676 2.0864 7.7287 2.14334 7.20336 2.36094C6.67802 2.57854 6.22901 2.94704 5.9131 3.41983C5.59719 3.89262 5.42857 4.44847 5.42857 5.01709C5.42857 5.77959 5.73147 6.51086 6.27064 7.05002C6.80981 7.58919 7.54108 7.89209 8.30357 7.89209ZM8.30357 3.78495C8.54727 3.78495 8.78549 3.85721 8.98811 3.9926C9.19074 4.12799 9.34867 4.32043 9.44192 4.54557C9.53518 4.77071 9.55958 5.01846 9.51204 5.25747C9.4645 5.49648 9.34715 5.71603 9.17483 5.88835C9.00251 6.06067 8.78296 6.17802 8.54395 6.22556C8.30494 6.2731 8.0572 6.2487 7.83205 6.15544C7.60691 6.06218 7.41447 5.90426 7.27908 5.70163C7.14369 5.49901 7.07143 5.26079 7.07143 5.01709C7.07143 4.69031 7.20124 4.37691 7.43232 4.14583C7.66339 3.91476 7.97679 3.78495 8.30357 3.78495ZM15.6964 7.89209C16.2651 7.89209 16.8209 7.72347 17.2937 7.40757C17.7665 7.09166 18.135 6.64264 18.3526 6.11731C18.5702 5.59197 18.6271 5.0139 18.5162 4.45621C18.4053 3.89851 18.1314 3.38623 17.7294 2.98416C17.3273 2.58208 16.815 2.30827 16.2573 2.19733C15.6996 2.0864 15.1216 2.14334 14.5962 2.36094C14.0709 2.57854 13.6219 2.94704 13.306 3.41983C12.99 3.89262 12.8214 4.44847 12.8214 5.01709C12.8214 5.77959 13.1243 6.51086 13.6635 7.05002C14.2027 7.58919 14.9339 7.89209 15.6964 7.89209ZM15.6964 3.78495C15.9401 3.78495 16.1783 3.85721 16.381 3.9926C16.5836 4.12799 16.7415 4.32043 16.8348 4.54557C16.928 4.77071 16.9524 5.01846 16.9049 5.25747C16.8574 5.49648 16.74 5.71603 16.5677 5.88835C16.3954 6.06067 16.1758 6.17802 15.9368 6.22556C15.6978 6.2731 15.4501 6.2487 15.2249 6.15544C14.9998 6.06218 14.8073 5.90426 14.6719 5.70163C14.5366 5.49901 14.4643 5.26079 14.4643 5.01709C14.4643 4.69031 14.5941 4.37691 14.8252 4.14583C15.0562 3.91476 15.3696 3.78495 15.6964 3.78495ZM18.0704 14.1411C17.6531 13.9109 17.2854 13.6007 16.9881 13.2283C16.6909 12.8558 16.47 12.4284 16.3382 11.9705C16.0651 11.0312 15.4945 10.206 14.7122 9.61877C13.9299 9.03156 12.9782 8.7141 12 8.7141C11.0218 8.7141 10.0701 9.03156 9.28782 9.61877C8.50553 10.206 7.93495 11.0312 7.66183 11.9705C7.398 12.8919 6.77949 13.671 5.94197 14.137C5.13853 14.5717 4.50295 15.2619 4.13577 16.0984C3.7686 16.9349 3.69077 17.8699 3.9146 18.7556C4.13843 19.6413 4.65115 20.427 5.37166 20.9886C6.09217 21.5502 6.97934 21.8556 7.89286 21.8564C8.4403 21.8579 8.98237 21.7486 9.48643 21.535C11.0934 20.8724 12.8973 20.8724 14.5043 21.535C15.4777 21.9583 16.5771 21.9884 17.5721 21.6189C18.5672 21.2494 19.3805 20.509 19.8417 19.553C20.3028 18.597 20.3759 17.4996 20.0457 16.4909C19.7155 15.4821 19.0076 14.6404 18.0704 14.1421V14.1411ZM16.1071 20.2135C15.7736 20.2138 15.4435 20.1464 15.1368 20.0153C13.125 19.1843 10.8658 19.1843 8.85393 20.0153C8.26928 20.2671 7.60989 20.2828 7.0139 20.0593C6.4179 19.8357 5.93154 19.3902 5.65667 18.816C5.38181 18.2419 5.33978 17.5837 5.53938 16.9792C5.73899 16.3748 6.16474 15.871 6.72746 15.5735C7.33248 15.2393 7.86571 14.7892 8.29665 14.2489C8.7276 13.7085 9.04781 13.0885 9.23897 12.4243C9.41256 11.8263 9.77562 11.3008 10.2735 10.9269C10.7714 10.553 11.3773 10.3508 12 10.3508C12.6227 10.3508 13.2286 10.553 13.7265 10.9269C14.2244 11.3008 14.5874 11.8263 14.761 12.4243C14.9528 13.0898 15.274 13.7108 15.7062 14.2519C16.1384 14.793 16.6731 15.2435 17.2797 15.5776C17.7642 15.8374 18.1479 16.2518 18.3697 16.7548C18.5916 17.2578 18.6389 17.8205 18.5041 18.3535C18.3693 18.8865 18.0601 19.3591 17.6258 19.6961C17.1914 20.0331 16.6569 20.2153 16.1071 20.2135Z" fill="#5A5A5A" stroke="#5A5A5A" stroke-width="0.2"/>
</g>
</svg>
