<svg width="24" height="24" viewBox="0 0 24 24" fill="none" xmlns="http://www.w3.org/2000/svg">
<g id="Property 1=Vaccination Dark">
<path id="Vector" d="M11.06 15.4209L9.5388 13.9105L11.06 12.3893L12.5704 13.9105L14.0808 12.3893L12.5704 10.8788L14.0808 9.36841L15.602 10.8788L17.1124 9.36841L14.0808 6.3368L6.5072 13.9105L9.5388 16.9421L11.06 15.4209ZM2.41507 19.513L5.75733 16.1815L3.48631 13.9105L14.0808 3.3052L16.3626 5.58694L17.8623 4.06578L16.3626 2.54462L17.8623 1.03418L22.4151 5.58694L20.9046 7.08667L19.3835 5.58694L17.8623 7.08667L20.144 9.36841L9.5388 19.9629L7.26778 17.6919L2.41507 22.5553V19.513Z" fill="#5A5A5A"/>
</g>
</svg>
