<svg width="24" height="24" viewBox="0 0 24 24" fill="none" xmlns="http://www.w3.org/2000/svg">
<g id="Dashboard">
<path id="Vector" fill-rule="evenodd" clip-rule="evenodd" d="M5.5425 11.1H8.5845C8.6934 11.1 8.8725 11.1 9.0363 11.1144C9.2388 11.1324 9.5844 11.1828 9.9498 11.3871C10.312 11.5899 10.611 11.8889 10.8138 12.2511C11.0172 12.6156 11.0676 12.9612 11.0856 13.1637C11.1009 13.3284 11.1 13.5066 11.1 13.6155V18.4845C11.1 18.5934 11.1 18.7725 11.0856 18.9363C11.0676 19.1388 11.0181 19.4844 10.8129 19.8498C10.6101 20.212 10.3111 20.511 9.9489 20.7138C9.66757 20.8685 9.35641 20.9611 9.0363 20.9856C8.8716 21 8.6934 21 8.5845 21H5.5155C5.4075 21 5.2275 21 5.0637 20.9856C4.74353 20.9609 4.43235 20.8679 4.1511 20.7129C3.78892 20.5101 3.48989 20.2111 3.2871 19.8489C3.13212 19.5676 3.03913 19.2565 3.0144 18.9363C3 18.7716 3 18.5934 3 18.4845V13.6155C3 13.5075 3 13.3275 3.0144 13.1637C3.0324 12.9612 3.0828 12.6156 3.2871 12.2511C3.48989 11.8889 3.78892 11.5899 4.1511 11.3871C4.43235 11.2321 4.74353 11.1391 5.0637 11.1144C5.2284 11.1 5.4066 11.1 5.5155 11.1H5.5425ZM4.8576 13.1304C4.8 13.233 4.8 13.368 4.8 13.6434V18.4584C4.8 18.7311 4.8 18.8679 4.8576 18.9696C4.89816 19.042 4.95796 19.1018 5.0304 19.1424C5.133 19.2 5.2689 19.2 5.5425 19.2H8.5575C8.8311 19.2 8.9679 19.2 9.0705 19.1424C9.14261 19.1017 9.20209 19.0419 9.2424 18.9696C9.3 18.8679 9.3 18.732 9.3 18.4575V13.6425C9.3 13.3689 9.3 13.233 9.2424 13.1295C9.20171 13.0574 9.14192 12.9979 9.0696 12.9576C8.9679 12.9 8.832 12.9 8.5575 12.9H5.5425C5.2689 12.9 5.133 12.9 5.0295 12.9576C4.95739 12.9983 4.89791 13.0581 4.8576 13.1304ZM5.5425 3H8.5845C8.6934 3 8.8725 3 9.0363 3.0144C9.2388 3.0324 9.5844 3.0828 9.9498 3.2871C10.312 3.48989 10.611 3.78892 10.8138 4.1511C11.0172 4.5156 11.0676 4.8612 11.0856 5.0637C11.1009 5.2284 11.1 5.4066 11.1 5.5155V7.6845C11.1 7.7934 11.1 7.9725 11.0856 8.1363C11.0676 8.3388 11.0181 8.6844 10.8129 9.0498C10.6101 9.41198 10.3111 9.71101 9.9489 9.9138C9.66757 10.0685 9.35641 10.1611 9.0363 10.1856C8.8716 10.2009 8.6934 10.2 8.5845 10.2H5.5155C5.4075 10.2 5.2275 10.2 5.0637 10.1856C4.74353 10.1609 4.43235 10.0679 4.1511 9.9129C3.78892 9.71011 3.48989 9.41108 3.2871 9.0489C3.13212 8.76765 3.03913 8.45647 3.0144 8.1363C3 7.9716 3 7.7934 3 7.6845V5.5155C3 5.4075 3 5.2275 3.0144 5.0637C3.0324 4.8612 3.0828 4.5156 3.2871 4.1511C3.48989 3.78892 3.78892 3.48989 4.1511 3.2871C4.43235 3.13212 4.74353 3.03913 5.0637 3.0144C5.2284 3 5.4066 3 5.5155 3H5.5425ZM4.8576 5.0304C4.8 5.133 4.8 5.268 4.8 5.5425V7.6575C4.8 7.9311 4.8 8.0679 4.8576 8.1705C4.89829 8.24261 4.95808 8.30209 5.0304 8.3424C5.133 8.4 5.268 8.4 5.5425 8.4H8.5575C8.8311 8.4 8.9679 8.4 9.0705 8.3424C9.14261 8.30171 9.20209 8.24192 9.2424 8.1696C9.3 8.0679 9.3 7.932 9.3 7.6575V5.5425C9.3 5.2689 9.3 5.133 9.2424 5.0295C9.20171 4.95739 9.14192 4.89791 9.0696 4.8576C8.9679 4.8 8.832 4.8 8.5575 4.8H5.5425C5.2689 4.8 5.133 4.8 5.0295 4.8576C4.95739 4.89829 4.89791 4.95808 4.8576 5.0304ZM15.4425 12.9H18.4845C18.5934 12.9 18.7725 12.9 18.9363 12.8856C19.1388 12.8676 19.4844 12.8181 19.8498 12.6129C20.212 12.4101 20.511 12.1111 20.7138 11.7489C20.9181 11.3844 20.9676 11.0388 20.9856 10.8363C21 10.6716 21 10.4934 21 10.3845V5.5155C21 5.4075 21 5.2275 20.9856 5.0637C20.9609 4.74353 20.8679 4.43235 20.7129 4.1511C20.5101 3.78892 20.2111 3.48989 19.8489 3.2871C19.5676 3.13212 19.2565 3.03913 18.9363 3.0144C18.7716 3 18.5934 3 18.4845 3H15.4155C15.3075 3 15.1275 3 14.9637 3.0144C14.7612 3.0324 14.4156 3.0828 14.0511 3.2871C13.6889 3.48989 13.3899 3.78892 13.1871 4.1511C13.0321 4.43235 12.9391 4.74353 12.9144 5.0637C12.9 5.2284 12.9 5.4066 12.9 5.5155V10.3845C12.9 10.4934 12.9 10.6725 12.9144 10.8363C12.9324 11.0388 12.9828 11.3844 13.1871 11.7498C13.3899 12.112 13.6889 12.411 14.0511 12.6138C14.4156 12.8172 14.7612 12.8676 14.9637 12.8856C15.1284 12.9009 15.3066 12.9 15.4155 12.9H15.4425ZM14.7576 10.8696C14.7 10.767 14.7 10.632 14.7 10.3575V5.5425C14.7 5.2689 14.7 5.133 14.7576 5.0295C14.7983 4.95739 14.8581 4.89791 14.9304 4.8576C15.033 4.8 15.168 4.8 15.4434 4.8H18.4584C18.7311 4.8 18.8679 4.8 18.9696 4.8576C19.042 4.89816 19.1018 4.95796 19.1424 5.0304C19.2 5.133 19.2 5.2689 19.2 5.5425V10.3575C19.2 10.6311 19.2 10.767 19.1424 10.8705C19.1017 10.9426 19.0419 11.0021 18.9696 11.0424C18.8679 11.1 18.7311 11.1 18.4575 11.1H15.4425C15.1689 11.1 15.033 11.1 14.9295 11.0424C14.8574 11.0017 14.7979 10.9419 14.7576 10.8696ZM15.4425 21H18.4845C18.5934 21 18.7725 21 18.9363 20.9856C19.1388 20.9676 19.4844 20.9172 19.8498 20.7129C20.212 20.5101 20.511 20.2111 20.7138 19.8489C20.9181 19.4844 20.9676 19.1388 20.9856 18.9363C21 18.7716 21 18.5934 21 18.4845V16.3155C21 16.2075 21 16.0275 20.9856 15.8637C20.9609 15.5435 20.8679 15.2324 20.7129 14.9511C20.5101 14.5889 20.2111 14.2899 19.8489 14.0871C19.5676 13.9321 19.2565 13.8391 18.9363 13.8144C18.7716 13.8 18.5934 13.8 18.4845 13.8H15.4155C15.3075 13.8 15.1275 13.8 14.9637 13.8144C14.7612 13.8324 14.4156 13.8828 14.0511 14.0871C13.6889 14.2899 13.3899 14.5889 13.1871 14.9511C13.0321 15.2324 12.9391 15.5435 12.9144 15.8637C12.9 16.0284 12.9 16.2066 12.9 16.3155V18.4845C12.9 18.5934 12.9 18.7725 12.9144 18.9363C12.9324 19.1388 12.9828 19.4844 13.1871 19.8498C13.3899 20.212 13.6889 20.511 14.0511 20.7138C14.4156 20.9181 14.7612 20.9676 14.9637 20.9856C15.1284 21 15.3066 21 15.4155 21H15.4425ZM14.7576 18.9696C14.7 18.8679 14.7 18.732 14.7 18.4575V16.3425C14.7 16.0689 14.7 15.933 14.7576 15.8295C14.7983 15.7574 14.8581 15.6979 14.9304 15.6576C15.033 15.6 15.1689 15.6 15.4434 15.6H18.4584C18.7311 15.6 18.8679 15.6 18.9696 15.6576C19.0416 15.6981 19.1019 15.7575 19.1424 15.8304C19.2 15.933 19.2 16.0689 19.2 16.3434V18.4584C19.2 18.7311 19.2 18.8679 19.1424 18.9696C19.1018 19.042 19.042 19.1018 18.9696 19.1424C18.8679 19.2 18.7311 19.2 18.4575 19.2H15.4425C15.1689 19.2 15.033 19.2 14.9295 19.1424C14.8574 19.1017 14.7979 19.0419 14.7576 18.9696Z" fill="#4B5563"/>
</g>
</svg>
