<svg width="14" height="17" viewBox="0 0 14 17" fill="none" xmlns="http://www.w3.org/2000/svg">
<path d="M6.99976 9.1875C8.13884 9.1875 9.06226 8.26409 9.06226 7.125C9.06226 5.98591 8.13884 5.0625 6.99976 5.0625C5.86067 5.0625 4.93726 5.98591 4.93726 7.125C4.93726 8.26409 5.86067 9.1875 6.99976 9.1875Z" stroke="#7F7F7F" stroke-width="1.375" stroke-linecap="round" stroke-linejoin="round"/>
<path d="M6.99976 1.625C5.54107 1.625 4.14212 2.20446 3.11067 3.23591C2.07922 4.26736 1.49976 5.66631 1.49976 7.125C1.49976 8.42575 1.77613 9.27687 2.53101 10.2187L6.99976 15.375L11.4685 10.2187C12.2234 9.27687 12.4998 8.42575 12.4998 7.125C12.4998 5.66631 11.9203 4.26736 10.8888 3.23591C9.85739 2.20446 8.45845 1.625 6.99976 1.625Z" stroke="#7F7F7F" stroke-width="1.375" stroke-linecap="round" stroke-linejoin="round"/>
</svg>
