<svg width="12" height="12" viewBox="0 0 12 12" fill="none" xmlns="http://www.w3.org/2000/svg">
<g clip-path="url(#clip0_40000717_7739)">
<path d="M6.0013 0.166992C5.23526 0.166992 4.47671 0.317876 3.76898 0.611028C3.06125 0.904181 2.41819 1.33386 1.87651 1.87554C0.78255 2.9695 0.167969 4.45323 0.167969 6.00033C0.167969 7.54742 0.78255 9.03115 1.87651 10.1251C2.41819 10.6668 3.06125 11.0965 3.76898 11.3896C4.47671 11.6828 5.23526 11.8337 6.0013 11.8337C7.5484 11.8337 9.03213 11.2191 10.1261 10.1251C11.2201 9.03115 11.8346 7.54742 11.8346 6.00033C11.8346 5.23428 11.6838 4.47574 11.3906 3.76801C11.0974 3.06027 10.6678 2.41721 10.1261 1.87554C9.58442 1.33386 8.94135 0.904181 8.23362 0.611028C7.52589 0.317876 6.76735 0.166992 6.0013 0.166992ZM3.12547 9.66366C3.3763 9.13866 4.90464 8.62533 6.0013 8.62533C7.09797 8.62533 8.6263 9.13866 8.87714 9.66366C8.05995 10.3144 7.04592 10.6682 6.0013 10.667C4.9163 10.667 3.9188 10.2937 3.12547 9.66366ZM9.7113 8.81783C8.87714 7.80282 6.85297 7.45866 6.0013 7.45866C5.14964 7.45866 3.12547 7.80282 2.2913 8.81783C1.67082 8.00965 1.33453 7.01922 1.33464 6.00033C1.33464 3.42783 3.4288 1.33366 6.0013 1.33366C8.5738 1.33366 10.668 3.42783 10.668 6.00033C10.668 7.06199 10.3063 8.04199 9.7113 8.81783ZM6.0013 2.50033C4.86964 2.50033 3.95964 3.41033 3.95964 4.54199C3.95964 5.67366 4.86964 6.58366 6.0013 6.58366C7.13297 6.58366 8.04297 5.67366 8.04297 4.54199C8.04297 3.41033 7.13297 2.50033 6.0013 2.50033ZM6.0013 5.41699C5.76924 5.41699 5.54668 5.3248 5.38258 5.16071C5.21849 4.99662 5.1263 4.77406 5.1263 4.54199C5.1263 4.30993 5.21849 4.08737 5.38258 3.92327C5.54668 3.75918 5.76924 3.66699 6.0013 3.66699C6.23337 3.66699 6.45593 3.75918 6.62002 3.92327C6.78411 4.08737 6.8763 4.30993 6.8763 4.54199C6.8763 4.77406 6.78411 4.99662 6.62002 5.16071C6.45593 5.3248 6.23337 5.41699 6.0013 5.41699Z" fill="#7F7F7F"/>
</g>
<defs>
<clipPath id="clip0_40000717_7739">
<rect width="12" height="12" fill="white"/>
</clipPath>
</defs>
</svg>
