<svg width="24" height="22" viewBox="0 0 24 22" fill="none" xmlns="http://www.w3.org/2000/svg">
<path d="M2.41536 2.83333H5.91537L8.2487 0.5H15.2487L17.582 2.83333H21.082C21.7009 2.83333 22.2944 3.07917 22.7319 3.51675C23.1695 3.95434 23.4154 4.54783 23.4154 5.16667V19.1667C23.4154 19.7855 23.1695 20.379 22.7319 20.8166C22.2944 21.2542 21.7009 21.5 21.082 21.5H2.41536C1.79653 21.5 1.20303 21.2542 0.765449 20.8166C0.327864 20.379 0.0820313 19.7855 0.0820312 19.1667V5.16667C0.0820312 4.54783 0.327864 3.95434 0.765449 3.51675C1.20303 3.07917 1.79653 2.83333 2.41536 2.83333ZM11.7487 6.33333C10.2016 6.33333 8.71787 6.94791 7.62391 8.04188C6.52995 9.13584 5.91537 10.6196 5.91537 12.1667C5.91537 13.7138 6.52995 15.1975 7.62391 16.2915C8.71787 17.3854 10.2016 18 11.7487 18C13.2958 18 14.7795 17.3854 15.8735 16.2915C16.9675 15.1975 17.582 13.7138 17.582 12.1667C17.582 10.6196 16.9675 9.13584 15.8735 8.04188C14.7795 6.94791 13.2958 6.33333 11.7487 6.33333ZM11.7487 8.66667C12.677 8.66667 13.5672 9.03541 14.2236 9.69179C14.88 10.3482 15.2487 11.2384 15.2487 12.1667C15.2487 13.0949 14.88 13.9852 14.2236 14.6415C13.5672 15.2979 12.677 15.6667 11.7487 15.6667C10.8204 15.6667 9.9302 15.2979 9.27382 14.6415C8.61745 13.9852 8.2487 13.0949 8.2487 12.1667C8.2487 11.2384 8.61745 10.3482 9.27382 9.69179C9.9302 9.03541 10.8204 8.66667 11.7487 8.66667Z" fill="white"/>
</svg>
