<svg width="16" height="20" viewBox="0 0 16 20" fill="none" xmlns="http://www.w3.org/2000/svg">
<path d="M14.291 16.8431C15.395 13.7442 15.3949 6.2556 14.291 3.15704L14.6119 0.886384C14.6434 0.663363 14.5767 0.437645 14.429 0.267605C14.2813 0.0976692 14.0672 0 13.8419 0H1.40849C1.18329 0 0.969187 0.0975655 0.821439 0.267605C0.673795 0.437645 0.607023 0.663259 0.638439 0.886281L0.958715 3.15693C-0.145092 6.2555 -0.145092 13.744 0.958715 16.843L0.638024 19.1137C0.606504 19.3367 0.673276 19.5625 0.82092 19.7324C0.968668 19.9024 1.18277 20 1.40797 20H13.8412C13.8418 20 13.8425 20 13.8433 20C14.2727 20 14.6209 19.6518 14.6209 19.2224C14.6209 19.1652 14.6147 19.1096 14.6031 19.056L14.291 16.8431ZM2.31219 15.9787C1.47723 13.1512 1.47723 6.84846 2.31219 4.02134H12.9378C13.7729 6.84856 13.7729 13.1513 12.9378 15.9787H2.31219ZM12.9467 1.55524L12.818 2.4661H2.43205L2.30358 1.55524H12.9467ZM2.30327 18.4448L2.43194 17.5339H12.8179L12.9463 18.4448H2.30327Z" fill="#7F7F7F"/>
<path d="M7.62536 9.11035C6.45561 9.11035 5.50391 10.062 5.50391 11.2317C5.50391 12.4015 6.45561 13.3531 7.62536 13.3531C8.79501 13.3531 9.74661 12.4015 9.74661 11.2317C9.74661 10.062 8.79511 9.11035 7.62536 9.11035Z" fill="#7F7F7F"/>
<path d="M6.36777 8.4404C6.86233 8.4404 7.26462 8.03801 7.26462 7.54344C7.26462 7.04888 6.86233 6.64648 6.36777 6.64648C5.8731 6.64648 5.4707 7.04888 5.4707 7.54344C5.4707 8.03801 5.8731 8.4404 6.36777 8.4404Z" fill="#7F7F7F"/>
<path d="M8.88318 6.64648C8.38862 6.64648 7.98633 7.04888 7.98633 7.54344C7.98633 8.03801 8.38862 8.4404 8.88318 8.4404C9.37786 8.4404 9.78025 8.03801 9.78025 7.54344C9.78025 7.04888 9.37786 6.64648 8.88318 6.64648Z" fill="#7F7F7F"/>
<path d="M4.55562 8.4873C4.10761 8.4873 3.74316 8.85175 3.74316 9.29976C3.74316 9.74778 4.10761 10.1122 4.55562 10.1122C5.00364 10.1122 5.36808 9.74778 5.36808 9.29976C5.36808 8.85175 5.00364 8.4873 4.55562 8.4873Z" fill="#7F7F7F"/>
<path d="M10.6943 8.4873C10.2463 8.4873 9.88184 8.85175 9.88184 9.29976C9.88184 9.74778 10.2463 10.1122 10.6943 10.1122C11.1423 10.1122 11.5068 9.74778 11.5068 9.29976C11.5068 8.85175 11.1423 8.4873 10.6943 8.4873Z" fill="#7F7F7F"/>
</svg>
