<svg width="17" height="18" viewBox="0 0 17 18" fill="none" xmlns="http://www.w3.org/2000/svg">
<path d="M8.62533 13.167C8.86144 13.167 9.05949 13.087 9.21949 12.927C9.37949 12.767 9.45922 12.5692 9.45866 12.3337V9.00033C9.45866 8.76421 9.37866 8.56644 9.21866 8.40699C9.05866 8.24755 8.86088 8.16755 8.62533 8.16699C8.38977 8.16644 8.19199 8.24644 8.03199 8.40699C7.87199 8.56755 7.79199 8.76533 7.79199 9.00033V12.3337C7.79199 12.5698 7.87199 12.7678 8.03199 12.9278C8.19199 13.0878 8.38977 13.1675 8.62533 13.167ZM8.62533 6.50033C8.86144 6.50033 9.05949 6.42033 9.21949 6.26033C9.37949 6.10033 9.45922 5.90255 9.45866 5.66699C9.4581 5.43144 9.3781 5.23366 9.21866 5.07366C9.05921 4.91366 8.86144 4.83366 8.62533 4.83366C8.38922 4.83366 8.19144 4.91366 8.03199 5.07366C7.87255 5.23366 7.79255 5.43144 7.79199 5.66699C7.79144 5.90255 7.87144 6.1006 8.03199 6.26116C8.19255 6.42171 8.39033 6.50144 8.62533 6.50033ZM8.62533 17.3337C7.47255 17.3337 6.38922 17.1148 5.37533 16.677C4.36144 16.2392 3.47949 15.6456 2.72949 14.8962C1.97949 14.1467 1.38588 13.2648 0.94866 12.2503C0.511438 11.2359 0.292549 10.1525 0.291993 9.00033C0.291438 7.8481 0.510327 6.76477 0.94866 5.75033C1.38699 4.73588 1.9806 3.85394 2.72949 3.10449C3.47838 2.35505 4.36033 1.76144 5.37533 1.32366C6.39033 0.885881 7.47366 0.666992 8.62533 0.666992C9.77699 0.666992 10.8603 0.885881 11.8753 1.32366C12.8903 1.76144 13.7723 2.35505 14.5212 3.10449C15.2701 3.85394 15.8639 4.73588 16.3028 5.75033C16.7417 6.76477 16.9603 7.8481 16.9587 9.00033C16.957 10.1525 16.7381 11.2359 16.302 12.2503C15.8659 13.2648 15.2723 14.1467 14.5212 14.8962C13.7701 15.6456 12.8881 16.2395 11.8753 16.6778C10.8625 17.1162 9.77921 17.3348 8.62533 17.3337ZM8.62533 15.667C10.4864 15.667 12.0628 15.0212 13.3545 13.7295C14.6462 12.4378 15.292 10.8614 15.292 9.00033C15.292 7.13921 14.6462 5.56283 13.3545 4.27116C12.0628 2.97949 10.4864 2.33366 8.62533 2.33366C6.76421 2.33366 5.18783 2.97949 3.89616 4.27116C2.60449 5.56283 1.95866 7.13921 1.95866 9.00033C1.95866 10.8614 2.60449 12.4378 3.89616 13.7295C5.18783 15.0212 6.76421 15.667 8.62533 15.667Z" fill="white"/>
</svg>
