<svg width="17" height="18" viewBox="0 0 17 18" fill="none" xmlns="http://www.w3.org/2000/svg">
<path d="M15.542 17.3337H3.04199C2.82098 17.3337 2.60902 17.2459 2.45274 17.0896C2.29646 16.9333 2.20866 16.7213 2.20866 16.5003V1.50033C2.20866 1.27931 2.29646 1.06735 2.45274 0.91107C2.60902 0.75479 2.82098 0.666992 3.04199 0.666992H15.542C15.763 0.666992 15.975 0.75479 16.1312 0.91107C16.2875 1.06735 16.3753 1.27931 16.3753 1.50033V14.0003C16.3753 14.2213 16.2875 14.4333 16.1312 14.5896C15.975 14.7459 15.763 14.8337 15.542 14.8337C15.321 14.8337 15.109 14.7459 14.9527 14.5896C14.7965 14.4333 14.7087 14.2213 14.7087 14.0003V2.33366H3.87533V15.667H15.542C15.763 15.667 15.975 15.7548 16.1312 15.9111C16.2875 16.0673 16.3753 16.2793 16.3753 16.5003C16.3753 16.7213 16.2875 16.9333 16.1312 17.0896C15.975 17.2459 15.763 17.3337 15.542 17.3337Z" fill="#7F7F7F"/>
<path d="M4.70866 4.83366H1.37533C1.15431 4.83366 0.94235 4.74586 0.78607 4.58958C0.62979 4.4333 0.541992 4.22134 0.541992 4.00033C0.541992 3.77931 0.62979 3.56735 0.78607 3.41107C0.94235 3.25479 1.15431 3.16699 1.37533 3.16699H4.70866C4.92967 3.16699 5.14163 3.25479 5.29791 3.41107C5.45419 3.56735 5.54199 3.77931 5.54199 4.00033C5.54199 4.22134 5.45419 4.4333 5.29791 4.58958C5.14163 4.74586 4.92967 4.83366 4.70866 4.83366Z" fill="#7F7F7F"/>
<path d="M4.70866 8.16699H1.37533C1.15431 8.16699 0.94235 8.07919 0.78607 7.92291C0.62979 7.76663 0.541992 7.55467 0.541992 7.33366C0.541992 7.11265 0.62979 6.90068 0.78607 6.7444C0.94235 6.58812 1.15431 6.50033 1.37533 6.50033H4.70866C4.92967 6.50033 5.14163 6.58812 5.29791 6.7444C5.45419 6.90068 5.54199 7.11265 5.54199 7.33366C5.54199 7.55467 5.45419 7.76663 5.29791 7.92291C5.14163 8.07919 4.92967 8.16699 4.70866 8.16699Z" fill="#7F7F7F"/>
<path d="M4.70866 11.5003H1.37533C1.15431 11.5003 0.94235 11.4125 0.78607 11.2562C0.62979 11.1 0.541992 10.888 0.541992 10.667C0.541992 10.446 0.62979 10.234 0.78607 10.0777C0.94235 9.92146 1.15431 9.83366 1.37533 9.83366H4.70866C4.92967 9.83366 5.14163 9.92146 5.29791 10.0777C5.45419 10.234 5.54199 10.446 5.54199 10.667C5.54199 10.888 5.45419 11.1 5.29791 11.2562C5.14163 11.4125 4.92967 11.5003 4.70866 11.5003Z" fill="#7F7F7F"/>
<path d="M4.70866 14.8337H1.37533C1.15431 14.8337 0.94235 14.7459 0.78607 14.5896C0.62979 14.4333 0.541992 14.2213 0.541992 14.0003C0.541992 13.7793 0.62979 13.5674 0.78607 13.4111C0.94235 13.2548 1.15431 13.167 1.37533 13.167H4.70866C4.92967 13.167 5.14163 13.2548 5.29791 13.4111C5.45419 13.5674 5.54199 13.7793 5.54199 14.0003C5.54199 14.2213 5.45419 14.4333 5.29791 14.5896C5.14163 14.7459 4.92967 14.8337 4.70866 14.8337Z" fill="#7F7F7F"/>
<path d="M11.3753 8.16699H8.04199C7.82098 8.16699 7.60902 8.07919 7.45274 7.92291C7.29646 7.76663 7.20866 7.55467 7.20866 7.33366C7.20866 7.11265 7.29646 6.90068 7.45274 6.7444C7.60902 6.58812 7.82098 6.50033 8.04199 6.50033H11.3753C11.5963 6.50033 11.8083 6.58812 11.9646 6.7444C12.1209 6.90068 12.2087 7.11265 12.2087 7.33366C12.2087 7.55467 12.1209 7.76663 11.9646 7.92291C11.8083 8.07919 11.5963 8.16699 11.3753 8.16699Z" fill="#7F7F7F"/>
<path d="M11.3753 11.5003H8.04199C7.82098 11.5003 7.60902 11.4125 7.45274 11.2562C7.29646 11.1 7.20866 10.888 7.20866 10.667C7.20866 10.446 7.29646 10.234 7.45274 10.0777C7.60902 9.92146 7.82098 9.83366 8.04199 9.83366H11.3753C11.5963 9.83366 11.8083 9.92146 11.9646 10.0777C12.1209 10.234 12.2087 10.446 12.2087 10.667C12.2087 10.888 12.1209 11.1 11.9646 11.2562C11.8083 11.4125 11.5963 11.5003 11.3753 11.5003Z" fill="#7F7F7F"/>
</svg>
