<svg width="20" height="20" viewBox="0 0 20 20" fill="none" xmlns="http://www.w3.org/2000/svg">
<path fill-rule="evenodd" clip-rule="evenodd" d="M5.39805 16.0586L5.86172 16.5222C6.77505 17.4355 8.2549 17.4355 9.16822 16.5222L16.9003 8.79018L18.1269 10.016C18.4316 10.3199 18.9249 10.3199 19.2288 10.0152C19.5327 9.71129 19.5327 9.21723 19.2288 8.91331L15.8864 5.57408L17.265 4.19241L18.4261 5.35276C18.73 5.65668 19.2241 5.65668 19.528 5.35198C19.8319 5.04806 19.8319 4.554 19.5272 4.25008L16.1233 0.847723C15.8186 0.543802 15.3246 0.543804 15.0206 0.848503C14.7167 1.15242 14.7167 1.64649 15.0214 1.95041L16.1623 3.09128L14.7845 4.47217L11.4375 1.12827C11.1328 0.824345 10.6395 0.824345 10.3356 1.12827C10.0317 1.43297 10.0317 1.92625 10.3356 2.23095L11.3876 3.28221L3.65791 11.0119C2.74459 11.9252 2.74459 13.4051 3.65791 14.3184L4.29614 14.9566L0.983412 18.2733C0.679491 18.578 0.680269 19.072 0.98419 19.376C1.28889 19.6799 1.78296 19.6791 2.08688 19.3752L5.39805 16.0586ZM12.4903 4.38333L4.75982 12.1138C4.45512 12.4185 4.45512 12.9118 4.75982 13.2165L6.96363 15.4203C7.26833 15.725 7.76162 15.725 8.06554 15.4203L8.73416 14.7525L7.87072 13.889C7.5668 13.5851 7.5668 13.091 7.87072 12.7871C8.17464 12.4824 8.6687 12.4824 8.97262 12.7871L9.83607 13.6498L11.0829 12.4029L10.2195 11.5403C9.91556 11.2364 9.91556 10.7423 10.2195 10.4384C10.5242 10.1337 11.0175 10.1337 11.3214 10.4384L12.1848 11.301L13.4099 10.0768L12.5464 9.21333C12.2425 8.90941 12.2425 8.41535 12.5464 8.11142C12.8503 7.80672 13.3444 7.80672 13.6483 8.11142L14.5118 8.97409L15.7976 7.68827L12.4903 4.38333Z" fill="white"/>
</svg>
