<svg width="20" height="20" viewBox="0 0 20 20" fill="none" xmlns="http://www.w3.org/2000/svg">
<path fill-rule="evenodd" clip-rule="evenodd" d="M5.39708 16.0586L5.86075 16.5222C6.77407 17.4355 8.25393 17.4355 9.16725 16.5222L16.8993 8.79018L18.1259 10.016C18.4306 10.3199 18.9239 10.3199 19.2278 10.0152C19.5317 9.71129 19.5317 9.21723 19.2278 8.91331L15.8854 5.57408L17.264 4.19241L18.4251 5.35276C18.7291 5.65668 19.2231 5.65668 19.527 5.35198C19.831 5.04806 19.831 4.554 19.5263 4.25008L16.1224 0.847723C15.8177 0.543802 15.3236 0.543804 15.0197 0.848503C14.7157 1.15242 14.7157 1.64649 15.0204 1.95041L16.1613 3.09128L14.7835 4.47217L11.4365 1.12827C11.1318 0.824345 10.6385 0.824345 10.3346 1.12827C10.0307 1.43297 10.0307 1.92625 10.3346 2.23095L11.3866 3.28221L3.65694 11.0119C2.74362 11.9252 2.74362 13.4051 3.65694 14.3184L4.29517 14.9566L0.982435 18.2733C0.678514 18.578 0.679293 19.072 0.983213 19.376C1.28791 19.6799 1.78198 19.6791 2.0859 19.3752L5.39708 16.0586ZM12.4893 4.38333L4.75884 12.1138C4.45414 12.4185 4.45414 12.9118 4.75884 13.2165L6.96266 15.4203C7.26735 15.725 7.76064 15.725 8.06456 15.4203L8.73319 14.7525L7.86974 13.889C7.56582 13.5851 7.56582 13.091 7.86974 12.7871C8.17366 12.4824 8.66773 12.4824 8.97165 12.7871L9.83509 13.6498L11.0819 12.4029L10.2185 11.5403C9.91458 11.2364 9.91458 10.7423 10.2185 10.4384C10.5232 10.1337 11.0165 10.1337 11.3204 10.4384L12.1839 11.301L13.4089 10.0768L12.5454 9.21333C12.2415 8.90941 12.2415 8.41535 12.5454 8.11142C12.8494 7.80672 13.3434 7.80672 13.6473 8.11142L14.5108 8.97409L15.7966 7.68827L12.4893 4.38333Z" fill="#7F7F7F"/>
</svg>
