<svg width="15" height="14" viewBox="0 0 15 14" fill="none" xmlns="http://www.w3.org/2000/svg">
<path d="M7.49992 6.99992C6.58325 6.99992 5.79853 6.67353 5.14575 6.02075C4.49297 5.36797 4.16659 4.58325 4.16659 3.66659C4.16659 2.74992 4.49297 1.9652 5.14575 1.31242C5.79853 0.659641 6.58325 0.333252 7.49992 0.333252C8.41658 0.333252 9.20131 0.659641 9.85408 1.31242C10.5069 1.9652 10.8333 2.74992 10.8333 3.66659C10.8333 4.58325 10.5069 5.36797 9.85408 6.02075C9.20131 6.67353 8.41658 6.99992 7.49992 6.99992ZM0.833252 11.9999V11.3333C0.833252 10.861 0.954919 10.4271 1.19825 10.0316C1.44159 9.63603 1.76436 9.33381 2.16659 9.12492C3.0277 8.69436 3.9027 8.37158 4.79159 8.15658C5.68047 7.94158 6.58325 7.83381 7.49992 7.83325C8.41658 7.8327 9.31936 7.94047 10.2083 8.15658C11.0971 8.3727 11.9721 8.69547 12.8333 9.12492C13.236 9.33325 13.5591 9.63547 13.8024 10.0316C14.0458 10.4277 14.1671 10.8616 14.1666 11.3333V11.9999C14.1666 12.4583 14.0035 12.8508 13.6774 13.1774C13.3513 13.5041 12.9588 13.6671 12.4999 13.6666H2.49992C2.04159 13.6666 1.64936 13.5035 1.32325 13.1774C0.997141 12.8513 0.833808 12.4588 0.833252 11.9999ZM2.49992 11.9999H12.4999V11.3333C12.4999 11.1805 12.4619 11.0416 12.3858 10.9166C12.3096 10.7916 12.2088 10.6944 12.0833 10.6249C11.3333 10.2499 10.5763 9.96881 9.81242 9.78159C9.04853 9.59436 8.2777 9.50047 7.49992 9.49992C6.72214 9.49936 5.95131 9.59325 5.18742 9.78159C4.42353 9.96992 3.66659 10.251 2.91659 10.6249C2.79159 10.6944 2.69075 10.7916 2.61409 10.9166C2.53742 11.0416 2.49936 11.1805 2.49992 11.3333V11.9999ZM7.49992 5.33325C7.95825 5.33325 8.35075 5.1702 8.67742 4.84409C9.00409 4.51797 9.16714 4.12547 9.16658 3.66659C9.16603 3.2077 9.00297 2.81547 8.67742 2.48992C8.35186 2.16436 7.95936 2.00103 7.49992 1.99992C7.04047 1.99881 6.64825 2.16214 6.32325 2.48992C5.99825 2.8177 5.83492 3.20992 5.83325 3.66659C5.83158 4.12325 5.99492 4.51575 6.32325 4.84409C6.65159 5.17242 7.04381 5.33547 7.49992 5.33325Z" fill="#7F7F7F"/>
</svg>
