<svg width="15" height="14" viewBox="0 0 15 14" fill="none" xmlns="http://www.w3.org/2000/svg">
<path d="M7.49992 7.00016C6.58325 7.00016 5.79853 6.67377 5.14575 6.021C4.49297 5.36822 4.16659 4.5835 4.16659 3.66683C4.16659 2.75016 4.49297 1.96544 5.14575 1.31266C5.79853 0.659885 6.58325 0.333496 7.49992 0.333496C8.41658 0.333496 9.20131 0.659885 9.85408 1.31266C10.5069 1.96544 10.8333 2.75016 10.8333 3.66683C10.8333 4.5835 10.5069 5.36822 9.85408 6.021C9.20131 6.67377 8.41658 7.00016 7.49992 7.00016ZM0.833252 12.0002V11.3335C0.833252 10.8613 0.954919 10.4274 1.19825 10.0318C1.44159 9.63627 1.76436 9.33405 2.16659 9.12516C3.0277 8.69461 3.9027 8.37183 4.79159 8.15683C5.68047 7.94183 6.58325 7.83405 7.49992 7.8335C8.41658 7.83294 9.31936 7.94072 10.2083 8.15683C11.0971 8.37294 11.9721 8.69572 12.8333 9.12516C13.236 9.3335 13.5591 9.63572 13.8024 10.0318C14.0458 10.4279 14.1671 10.8618 14.1666 11.3335V12.0002C14.1666 12.4585 14.0035 12.851 13.6774 13.1777C13.3513 13.5043 12.9588 13.6674 12.4999 13.6668H2.49992C2.04159 13.6668 1.64936 13.5038 1.32325 13.1777C0.997141 12.8516 0.833808 12.4591 0.833252 12.0002ZM2.49992 12.0002H12.4999V11.3335C12.4999 11.1807 12.4619 11.0418 12.3858 10.9168C12.3096 10.7918 12.2088 10.6946 12.0833 10.6252C11.3333 10.2502 10.5763 9.96905 9.81242 9.78183C9.04853 9.59461 8.2777 9.50072 7.49992 9.50016C6.72214 9.49961 5.95131 9.5935 5.18742 9.78183C4.42353 9.97016 3.66659 10.2513 2.91659 10.6252C2.79159 10.6946 2.69075 10.7918 2.61409 10.9168C2.53742 11.0418 2.49936 11.1807 2.49992 11.3335V12.0002ZM7.49992 5.3335C7.95825 5.3335 8.35075 5.17044 8.67742 4.84433C9.00409 4.51822 9.16714 4.12572 9.16658 3.66683C9.16603 3.20794 9.00297 2.81572 8.67742 2.49016C8.35186 2.16461 7.95936 2.00127 7.49992 2.00016C7.04047 1.99905 6.64825 2.16238 6.32325 2.49016C5.99825 2.81794 5.83492 3.21016 5.83325 3.66683C5.83158 4.1235 5.99492 4.516 6.32325 4.84433C6.65159 5.17266 7.04381 5.33572 7.49992 5.3335Z" fill="white"/>
</svg>
