<svg width="20" height="20" viewBox="0 0 20 20" fill="none" xmlns="http://www.w3.org/2000/svg">
<path d="M9.16675 4.1665H10.8334M15.8334 9.99984C15.2779 14.4443 13.889 16.6665 11.6667 16.6665H8.33341C6.11119 16.6665 4.7223 14.4443 4.16675 9.99984" stroke="white" stroke-width="1.66667" stroke-linecap="round" stroke-linejoin="round"/>
<path d="M10.0001 14.9999V16.6666M8.33347 9.16659V9.17492M11.6668 9.16659V9.17492M9.1668 13.3333C9.1668 13.8888 9.44458 14.1666 10.0001 14.1666C10.8335 14.1666 10.8335 13.8891 10.8335 13.3333H9.1668ZM4.1668 3.33325L9.1668 4.14159L3.96847 9.71492C3.82255 9.87923 3.61867 9.98065 3.3996 9.9979C3.18053 10.0151 2.96329 9.94688 2.79347 9.80742C2.678 9.71384 2.59121 9.58966 2.54302 9.44906C2.49483 9.30847 2.48718 9.15715 2.52097 9.01242L4.1668 3.33325ZM15.8335 3.33325L10.8335 4.14159L16.0318 9.71492C16.3301 10.0549 16.856 10.0966 17.2068 9.80742C17.3223 9.71384 17.4091 9.58966 17.4572 9.44906C17.5054 9.30847 17.5131 9.15715 17.4793 9.01242L15.8335 3.33325Z" stroke="white" stroke-width="1.66667" stroke-linecap="round" stroke-linejoin="round"/>
</svg>
