<svg width="20" height="20" viewBox="0 0 20 20" fill="none" xmlns="http://www.w3.org/2000/svg">
<path d="M9.16675 4.16699H10.8334M15.8334 10.0003C15.2779 14.4448 13.889 16.667 11.6667 16.667H8.33341C6.11119 16.667 4.7223 14.4448 4.16675 10.0003" stroke="#5A5A5A" stroke-width="1.66667" stroke-linecap="round" stroke-linejoin="round"/>
<path d="M10.0001 15.0002V16.6668M8.33347 9.16683V9.17516M11.6668 9.16683V9.17516M9.1668 13.3335C9.1668 13.8891 9.44458 14.1668 10.0001 14.1668C10.8335 14.1668 10.8335 13.8893 10.8335 13.3335H9.1668ZM4.1668 3.3335L9.1668 4.14183L3.96847 9.71516C3.82255 9.87948 3.61867 9.98089 3.3996 9.99814C3.18053 10.0154 2.96329 9.94712 2.79347 9.80766C2.678 9.71409 2.59121 9.5899 2.54302 9.44931C2.49483 9.30871 2.48718 9.15739 2.52097 9.01266L4.1668 3.3335ZM15.8335 3.3335L10.8335 4.14183L16.0318 9.71516C16.3301 10.0552 16.856 10.0968 17.2068 9.80766C17.3223 9.71409 17.4091 9.5899 17.4572 9.44931C17.5054 9.30871 17.5131 9.15739 17.4793 9.01266L15.8335 3.3335Z" stroke="#5A5A5A" stroke-width="1.66667" stroke-linecap="round" stroke-linejoin="round"/>
</svg>
