<svg width="12" height="8" viewBox="0 0 12 8" fill="none" xmlns="http://www.w3.org/2000/svg">
<path fill-rule="evenodd" clip-rule="evenodd" d="M11.5505 0.989265C11.7191 1.15802 11.8137 1.38676 11.8137 1.62526C11.8137 1.86377 11.7191 2.09251 11.5505 2.26126L6.11454 7.69727L0.678539 2.26126C0.590115 2.17887 0.519193 2.07951 0.470002 1.96911C0.420812 1.85871 0.394362 1.73953 0.39223 1.61869C0.390098 1.49785 0.412327 1.37781 0.457592 1.26575C0.502857 1.15368 0.570231 1.05188 0.655693 0.966419C0.741156 0.880957 0.842957 0.813583 0.955022 0.768318C1.06709 0.723053 1.18712 0.700822 1.30797 0.702955C1.42881 0.705087 1.54799 0.731537 1.65839 0.780727C1.76878 0.829918 1.86814 0.900841 1.95054 0.989265L6.11454 5.15326L10.2785 0.989265C10.4473 0.820724 10.676 0.726057 10.9145 0.726057C11.153 0.726057 11.3818 0.820724 11.5505 0.989265Z" fill="#7F7F7F"/>
</svg>
