<svg width="20" height="20" viewBox="0 0 20 20" fill="none" xmlns="http://www.w3.org/2000/svg">
<path fill-rule="evenodd" clip-rule="evenodd" d="M4 4.73958C4 4.45227 4.11414 4.17672 4.3173 3.97355C4.52047 3.77039 4.79602 3.65625 5.08333 3.65625H15.9167C16.204 3.65625 16.4795 3.77039 16.6827 3.97355C16.8859 4.17672 17 4.45227 17 4.73958V6.24614C16.9999 6.6292 16.8477 6.99654 16.5768 7.26736L12.6667 11.1775V16.5392C12.6667 16.6747 12.6321 16.8079 12.5661 16.9262C12.5002 17.0445 12.4051 17.1439 12.2899 17.2151C12.1747 17.2864 12.0432 17.3269 11.9079 17.333C11.7726 17.3391 11.638 17.3105 11.5169 17.2499L8.83239 15.908C8.68243 15.8331 8.55632 15.7178 8.46817 15.5752C8.38003 15.4326 8.33334 15.2682 8.33333 15.1006V11.1775L4.42322 7.26736C4.15232 6.99654 4.00008 6.6292 4 6.24614V4.73958ZM5.44444 5.10069V6.24614L9.46 10.2617C9.56071 10.3623 9.64061 10.4817 9.69514 10.6132C9.74967 10.7447 9.77775 10.8856 9.77778 11.028V14.7655L11.2222 15.4877V11.028C11.2222 10.7405 11.3363 10.4646 11.54 10.2624L15.5556 6.24542V5.10069H5.44444Z" fill="#5A5A5A"/>
</svg>
