<svg width="14" height="14" viewBox="0 0 14 14" fill="none" xmlns="http://www.w3.org/2000/svg">
<path d="M13.0363 10.4915L5.9563 10.4913H5.9545C5.83416 10.4913 5.71876 10.5391 5.63367 10.6242C5.54858 10.7093 5.50075 10.8247 5.5007 10.9451C5.5007 10.9535 5.5027 10.9611 5.5031 10.9693V13.0361H5.5053C5.5054 13.1558 5.55284 13.2707 5.63728 13.3557C5.72172 13.4407 5.83631 13.4888 5.9561 13.4897L13.0361 13.4899V13.4895C13.1559 13.4886 13.2705 13.4405 13.3549 13.3555C13.4394 13.2705 13.4868 13.1556 13.4869 13.0359V10.9651C13.4873 10.9583 13.4889 10.9517 13.4889 10.9449C13.4889 10.8247 13.4412 10.7095 13.3564 10.6245C13.2715 10.5395 13.1564 10.4917 13.0363 10.4915ZM3.0555 10.4909H0.964298C0.843959 10.4909 0.728564 10.5387 0.643472 10.6238C0.558379 10.7089 0.510551 10.8243 0.510498 10.9447V13.0355C0.510551 13.1558 0.558352 13.2711 0.643401 13.3562C0.72845 13.4413 0.843794 13.4891 0.964098 13.4893H3.0551C3.17544 13.4892 3.29083 13.4414 3.37592 13.3563C3.46102 13.2712 3.50884 13.1558 3.5089 13.0355V10.9447C3.50895 10.8851 3.49726 10.8261 3.4745 10.771C3.45174 10.716 3.41835 10.6659 3.37624 10.6238C3.33413 10.5816 3.28413 10.5482 3.2291 10.5254C3.17406 10.5026 3.11507 10.4909 3.0555 10.4909ZM13.0363 5.49345L5.9563 5.49325H5.9545C5.83416 5.49331 5.71876 5.54113 5.63367 5.62623C5.54858 5.71132 5.50075 5.82671 5.5007 5.94705C5.5007 5.95545 5.5027 5.96305 5.5031 5.97125V8.03805H5.5053C5.5054 8.15784 5.55284 8.27273 5.63728 8.3577C5.72172 8.44266 5.83631 8.49081 5.9561 8.49165L13.0361 8.49185V8.49145C13.1559 8.49061 13.2705 8.44246 13.3549 8.3575C13.4394 8.27253 13.4868 8.15764 13.4869 8.03785V5.96705C13.4873 5.96025 13.4889 5.95365 13.4889 5.94685C13.4889 5.82674 13.4412 5.71154 13.3564 5.62653C13.2715 5.54153 13.1564 5.49367 13.0363 5.49345ZM3.0555 5.49285H0.964298C0.843959 5.49291 0.728564 5.54073 0.643472 5.62583C0.558379 5.71092 0.510551 5.82632 0.510498 5.94665V8.03745C0.510551 8.15776 0.558352 8.27312 0.643401 8.35821C0.72845 8.4433 0.843794 8.49115 0.964098 8.49125H3.0551C3.17544 8.4912 3.29083 8.44337 3.37592 8.35828C3.46102 8.27319 3.50884 8.15779 3.5089 8.03745V5.94665C3.50895 5.88708 3.49726 5.82808 3.4745 5.77302C3.45174 5.71797 3.41835 5.66794 3.37624 5.62579C3.33413 5.58365 3.28413 5.55022 3.2291 5.52741C3.17406 5.50459 3.11507 5.49285 3.0555 5.49285ZM5.5031 3.05525H5.5053C5.5054 3.17504 5.55284 3.28993 5.63728 3.3749C5.72172 3.45986 5.83631 3.50801 5.9561 3.50885L13.0361 3.50905V3.50865C13.1559 3.50781 13.2705 3.45966 13.3549 3.3747C13.4394 3.28973 13.4868 3.17484 13.4869 3.05505V0.984254C13.4873 0.977454 13.4889 0.970854 13.4889 0.964054C13.4888 0.843922 13.4411 0.72873 13.3562 0.643709C13.2713 0.558689 13.1562 0.510771 13.0361 0.510454L5.9561 0.510254H5.9543C5.83396 0.510307 5.71856 0.558135 5.63347 0.643227C5.54838 0.72832 5.50055 0.843715 5.5005 0.964054C5.5005 0.972454 5.5025 0.980054 5.5029 0.988254L5.5031 3.05525ZM3.0555 0.510254H0.964298C0.843959 0.510307 0.728564 0.558135 0.643472 0.643227C0.558379 0.72832 0.510551 0.843715 0.510498 0.964054V3.05485C0.510551 3.17516 0.558352 3.29052 0.643401 3.37561C0.72845 3.4607 0.843794 3.50855 0.964098 3.50865H3.0551C3.17544 3.5086 3.29083 3.46077 3.37592 3.37568C3.46102 3.29059 3.50884 3.17519 3.5089 3.05485V0.964054C3.50898 0.904471 3.49731 0.845458 3.47455 0.790391C3.4518 0.735324 3.41841 0.685284 3.3763 0.643134C3.33419 0.600985 3.28418 0.567553 3.22913 0.544751C3.17408 0.52195 3.11508 0.510228 3.0555 0.510254Z" fill="#9D9D9D"/>
</svg>
