<svg width="14" height="14" viewBox="0 0 14 14" fill="none" xmlns="http://www.w3.org/2000/svg">
<path d="M3.0555 0.510742H0.964298C0.843959 0.510795 0.728564 0.558623 0.643472 0.643716C0.558379 0.728808 0.510551 0.844203 0.510498 0.964542V3.05534C0.510551 3.17568 0.558379 3.29108 0.643472 3.37617C0.728564 3.46126 0.843959 3.50909 0.964298 3.50914H3.0553C3.17564 3.50909 3.29103 3.46126 3.37612 3.37617C3.46122 3.29108 3.50905 3.17568 3.5091 3.05534V0.964742C3.5091 0.844403 3.46132 0.728987 3.37627 0.643857C3.29121 0.558727 3.17584 0.510848 3.0555 0.510742ZM8.0453 0.510742H5.9543C5.83396 0.510795 5.71856 0.558623 5.63347 0.643716C5.54838 0.728808 5.50055 0.844203 5.5005 0.964542V3.05534C5.50055 3.17568 5.54838 3.29108 5.63347 3.37617C5.71856 3.46126 5.83396 3.50909 5.9543 3.50914H8.0453C8.16564 3.50909 8.28103 3.46126 8.36612 3.37617C8.45122 3.29108 8.49905 3.17568 8.4991 3.05534V0.964742C8.4991 0.844369 8.45129 0.728922 8.3662 0.643787C8.2811 0.558651 8.16567 0.510795 8.0453 0.510742ZM13.4891 0.964542C13.489 0.844203 13.4412 0.728808 13.3561 0.643716C13.271 0.558623 13.1556 0.510795 13.0353 0.510742H10.9441C10.8238 0.510795 10.7084 0.558623 10.6233 0.643716C10.5382 0.728808 10.4904 0.844203 10.4903 0.964542V3.05554C10.4903 3.17592 10.5381 3.29136 10.6232 3.3765C10.7083 3.46163 10.8237 3.50949 10.9441 3.50954H13.0351C13.1554 3.50949 13.2708 3.46166 13.3559 3.37657C13.441 3.29148 13.4888 3.17608 13.4889 3.05574L13.4891 0.964542ZM3.0555 5.50134H0.964298C0.843959 5.5014 0.728564 5.54922 0.643472 5.63432C0.558379 5.71941 0.510551 5.8348 0.510498 5.95514V8.04614C0.510551 8.16648 0.558379 8.28188 0.643472 8.36697C0.728564 8.45206 0.843959 8.49989 0.964298 8.49994H3.0553C3.17564 8.49989 3.29103 8.45206 3.37612 8.36697C3.46122 8.28188 3.50905 8.16648 3.5091 8.04614V5.95534C3.5091 5.835 3.46132 5.71959 3.37627 5.63446C3.29121 5.54933 3.17584 5.50145 3.0555 5.50134ZM8.0453 5.50134H5.9543C5.83396 5.5014 5.71856 5.54922 5.63347 5.63432C5.54838 5.71941 5.50055 5.8348 5.5005 5.95514V8.04614C5.50055 8.16648 5.54838 8.28188 5.63347 8.36697C5.71856 8.45206 5.83396 8.49989 5.9543 8.49994H8.0453C8.16564 8.49989 8.28103 8.45206 8.36612 8.36697C8.45122 8.28188 8.49905 8.16648 8.4991 8.04614V5.95534C8.4991 5.83497 8.45129 5.71952 8.3662 5.63439C8.2811 5.54925 8.16567 5.5014 8.0453 5.50134ZM13.0353 5.50134H10.9441C10.8238 5.5014 10.7084 5.54922 10.6233 5.63432C10.5382 5.71941 10.4904 5.8348 10.4903 5.95514V8.04614C10.4903 8.16652 10.5381 8.28196 10.6232 8.3671C10.7083 8.45223 10.8237 8.50009 10.9441 8.50014H13.0351C13.1554 8.50009 13.2708 8.45226 13.3559 8.36717C13.441 8.28208 13.4888 8.16668 13.4889 8.04634V5.95534C13.4889 5.835 13.4411 5.71959 13.3561 5.63446C13.271 5.54933 13.1556 5.50145 13.0353 5.50134ZM3.0555 10.4909H0.964298C0.843959 10.491 0.728564 10.5388 0.643472 10.6239C0.558379 10.709 0.510551 10.8244 0.510498 10.9447V13.0355C0.510551 13.1559 0.558379 13.2713 0.643472 13.3564C0.728564 13.4415 0.843959 13.4893 0.964298 13.4893H3.0553C3.17564 13.4893 3.29103 13.4415 3.37612 13.3564C3.46122 13.2713 3.50905 13.1559 3.5091 13.0355V10.9447C3.50905 10.8244 3.46124 10.7091 3.3762 10.624C3.29115 10.5389 3.1758 10.491 3.0555 10.4909ZM8.0453 10.4909H5.9543C5.83396 10.491 5.71856 10.5388 5.63347 10.6239C5.54838 10.709 5.50055 10.8244 5.5005 10.9447V13.0355C5.50055 13.1559 5.54838 13.2713 5.63347 13.3564C5.71856 13.4415 5.83396 13.4893 5.9543 13.4893H8.0453C8.16564 13.4893 8.28103 13.4415 8.36612 13.3564C8.45122 13.2713 8.49905 13.1559 8.4991 13.0355V10.9447C8.49905 10.8244 8.45122 10.709 8.36612 10.6239C8.28103 10.5388 8.16564 10.491 8.0453 10.4909ZM13.0353 10.4909H10.9441C10.8238 10.491 10.7084 10.5388 10.6233 10.6239C10.5382 10.709 10.4904 10.8244 10.4903 10.9447V13.0355C10.4903 13.1559 10.5381 13.2714 10.6232 13.3565C10.7083 13.4416 10.8237 13.4895 10.9441 13.4895H13.0351C13.1554 13.4895 13.2708 13.4417 13.3559 13.3566C13.441 13.2715 13.4888 13.1561 13.4889 13.0357V10.9447C13.4888 10.8244 13.441 10.7091 13.356 10.624C13.2709 10.5389 13.1556 10.491 13.0353 10.4909Z" fill="#9D9D9D"/>
</svg>
