<svg width="20" height="20" viewBox="0 0 20 20" fill="none" xmlns="http://www.w3.org/2000/svg">
<path d="M4.16667 18.3334C3.70833 18.3334 3.31583 18.1704 2.98917 17.8442C2.66306 17.5176 2.5 17.1251 2.5 16.6667V5.00008C2.5 4.54175 2.66306 4.14953 2.98917 3.82341C3.31583 3.49675 3.70833 3.33341 4.16667 3.33341H5V1.66675H6.66667V3.33341H13.3333V1.66675H15V3.33341H15.8333C16.2917 3.33341 16.6842 3.49675 17.0108 3.82341C17.3369 4.14953 17.5 4.54175 17.5 5.00008V10.0001H15.8333V8.33341H4.16667V16.6667H10V18.3334H4.16667ZM18.4375 14.1667L16.6667 12.3959L17.2708 11.7917C17.4236 11.639 17.6181 11.5626 17.8542 11.5626C18.0903 11.5626 18.2847 11.639 18.4375 11.7917L19.0417 12.3959C19.1944 12.5487 19.2708 12.7431 19.2708 12.9792C19.2708 13.2154 19.1944 13.4098 19.0417 13.5626L18.4375 14.1667ZM11.6667 19.1667V17.3959L16.0833 12.9792L17.8542 14.7501L13.4375 19.1667H11.6667ZM4.16667 6.66675H15.8333V5.00008H4.16667V6.66675Z" fill="#3B82F6"/>
</svg>
