<svg width="20" height="20" viewBox="0 0 20 20" fill="none" xmlns="http://www.w3.org/2000/svg">
<path d="M10.4169 8.33338C10.4169 6.95838 9.29186 5.83338 7.91686 5.83338C6.54186 5.83338 5.41686 6.95838 5.41686 8.33338C5.41686 9.70838 6.54186 10.8334 7.91686 10.8334C9.29186 10.8334 10.4169 9.70838 10.4169 8.33338ZM7.91686 9.16672C7.45853 9.16672 7.08353 8.79172 7.08353 8.33338C7.08353 7.87505 7.45853 7.50005 7.91686 7.50005C8.3752 7.50005 8.7502 7.87505 8.7502 8.33338C8.7502 8.79172 8.3752 9.16672 7.91686 9.16672ZM13.3335 10.8334C14.2585 10.8334 15.0002 10.0917 15.0002 9.16672C15.0002 8.24171 14.2585 7.50005 13.3335 7.50005C12.4085 7.50005 11.6585 8.24171 11.6669 9.16672C11.6669 10.0917 12.4085 10.8334 13.3335 10.8334ZM9.99186 1.67505C5.39186 1.67505 1.65853 5.40838 1.65853 10.0084C1.65853 14.6084 5.39186 18.3417 9.99186 18.3417C14.5919 18.3417 18.3252 14.6084 18.3252 10.0084C18.3252 5.40838 14.5919 1.67505 9.99186 1.67505ZM4.86686 14.2667C5.43353 13.8167 6.75853 13.3417 7.91686 13.3417C7.9752 13.3417 8.04186 13.35 8.10853 13.35C8.30853 12.8167 8.66686 12.275 9.19186 11.8C8.7252 11.7167 8.28353 11.6667 7.91686 11.6667C6.83353 11.6667 5.09186 12.0417 3.9752 12.8584C3.55853 11.9917 3.3252 11.025 3.3252 10C3.3252 6.32505 6.31686 3.33338 9.99186 3.33338C13.6669 3.33338 16.6585 6.32505 16.6585 10C16.6585 11 16.4335 11.95 16.0335 12.8084C15.2002 12.3167 14.0669 12.0834 13.3335 12.0834C12.0669 12.0834 9.58353 12.7584 9.58353 14.3334V16.65C7.69186 16.5417 6.00853 15.6417 4.86686 14.2667Z" fill="white"/>
</svg>
